<svg width="182" height="182" viewBox="0 0 182 182" fill="none" xmlns="http://www.w3.org/2000/svg"><mask id="mask0_374_69" style="mask-type:luminance" maskUnits="userSpaceOnUse" x="5" y="5" width="174" height="171"><path d="M179 5H5V176H179V5Z" fill="white"/></mask><g mask="url(#mask0_374_69)"><path d="M117.567 138.735H90.374H43.2361V135.935H34.4125V132.992H28.5298V130.048H25.5889V127.104H19.7063V121.217H16.7654V118.273H13.8237V106.499H10.8828V71.1747H7.94184V62.3435H5V20.3293H7.94184V14.4417H20.5089V17.3859H26.3907V20.3293H32.2734V23.2727H35.2143V26.2169H38.156V29.1603H41.0969V32.1037H43.2361V29.1603H60.8824V26.2169H75.5887V23.2727H88.1558V26.2169H99.9202V29.1603H117.567V32.1037H119.707V29.1603H122.647V26.2169H125.588V23.2727H128.53V20.3293H134.412V17.3859H140.295V14.4417H152.862V20.3293H155.803V62.3435H152.862V71.1747H149.921V106.499H146.979V118.273H144.038V121.217H141.097V127.104H135.215V130.048H132.274V132.992H126.391V135.935H117.567V138.735ZM90.374 135.211H113.903V132.268H122.727V129.324H128.609V126.38H131.55V123.437H137.433V117.549H140.374V114.606H143.315V102.831H146.256V67.5073H149.197V58.676H152.138V23.9967H149.197V18.1091H143.959V21.0533H138.076C138.076 22.0078 138.089 22.9706 138.089 23.9188C136.106 23.9818 134.13 23.9967 132.195 23.9967V26.9401H129.253C129.253 27.1646 129.237 29.7118 129.218 29.7429L126.312 29.8844V32.0155C126.302 32.0933 126.296 32.1729 126.294 32.2544C126.294 32.5113 126.285 32.7819 126.286 33.0539C126.215 33.3367 126.194 33.6473 126.234 33.977H130.402V31.0336H133.343H136.284V25.146H139.225H145.107V54.5825H139.225H136.284V48.6958H133.343V42.8081H124.519V35.8435C121.004 35.8243 117.486 35.7711 113.903 35.7711V32.8278H96.2558V29.8844H84.4914V26.9401H79.2531V29.8844H64.5468V32.8278H46.9005V35.7711C43.3718 35.7711 39.8282 35.8283 36.2842 35.8455V42.8081H27.4607V48.6958H24.519V54.5825H21.5781H15.6954V25.146H21.5781H24.519V31.0336H27.4607H30.4016V33.977H34.7793C34.6922 33.9092 34.5999 33.8495 34.5033 33.7974C34.5003 32.4895 34.4916 31.2055 34.4916 29.8844L31.5596 29.8661C31.5375 29.2666 31.5499 27.381 31.5499 26.9401L28.652 26.9542C28.6272 26.9035 28.609 24.2183 28.609 23.9967C27.5532 23.9967 23.9159 24.0185 22.7537 23.9854C22.6783 22.8549 22.7263 22.1299 22.7263 21.0533H16.8445V18.1091H11.6062V23.9967H8.66437V58.676H11.6062V67.5073H14.5471V102.831H17.488V114.606H20.4298V117.549H23.3707V123.437H29.2533V126.38H32.1942V129.324H38.0769V132.268H46.9005V135.211H90.374ZM56.9003 89.5781H53.8863H45.0627V86.9853H53.8863V86.9633H45.1079V60.4702H53.9306V60.4921H56.9003V86.9853V89.5781ZM118.71 89.5562H115.696H106.872V86.9633V60.4702H115.696H118.71V86.9633V89.5562ZM86.284 92.8509V89.9067H83.3431H80.4014V92.8509H77.4605V89.9067H74.5196V92.8509V98.7378H77.4605V101.682H83.3431V98.7378H86.284V92.8509Z" fill="#56B3C6"/><path fill-rule="evenodd" clip-rule="evenodd" d="M127.525 155.05V158.542H131.014V165.525H127.525V169.017H124.037H120.548V172.508H117.059H113.571H110.082V169.017H113.571V165.525V158.542V155.05H117.059V151.559H120.548H124.037V155.05H127.525ZM137.988 141.014H141.421L141.445 137.557L144.9 137.521L144.934 134.066L148.388 134.03L148.423 130.574L151.877 130.538L151.911 127.083L155.366 127.046L155.4 123.591L158.854 123.555L158.889 120.099L162.343 120.063L162.378 116.608L165.832 116.571L165.866 113.116L169.389 113.08V109.659H176.367V113.151H172.878V116.642H169.389V120.134H165.901V123.626H162.412V127.117H158.923V130.609H155.435V134.1H151.946V137.592H148.457V141.084H144.969V144.575L137.988 144.578V141.014ZM148.457 127.117H144.969V130.609H141.48V134.1H137.991V137.592H134.503V141.084H131.014V144.575H127.525V148.067H117.059V151.559H113.571V155.05H110.082V169.017H106.593V176H120.548V172.508H127.525V169.017H131.014V165.525H134.503V155.05H137.991V151.559H141.48V148.067H144.969V144.575H148.457V141.084H151.946V137.592H155.435V134.1H158.923V130.609H162.412V127.117H165.901V123.626H169.389V120.134H172.878V116.642H176.367V113.151H179.855V102.676H169.389V106.167H165.901V109.659H162.412V113.151H158.923V116.642H155.435V120.134H151.946V123.626H148.457V127.117Z" fill="#56B3C6"/><path fill-rule="evenodd" clip-rule="evenodd" d="M127.525 155.05V158.542H131.014V165.525H127.525V169.017H124.037H120.548V172.508H117.059H113.571H110.082V169.017H113.571V165.525V158.542V155.05H117.059V151.559H120.548H124.037V155.05H127.525Z" fill="#FEFEFE"/><path fill-rule="evenodd" clip-rule="evenodd" d="M144.969 144.576L137.988 144.579V141.015H141.421L141.445 137.558L144.899 137.521L144.934 134.066L148.388 134.03L148.423 130.574L151.877 130.538L151.911 127.083L155.366 127.046L155.4 123.591L158.854 123.555L158.889 120.099L162.343 120.063L162.377 116.608L165.831 116.572L165.866 113.116L169.389 113.08V109.659H176.367V113.151H172.878V116.642H169.389V120.134H165.901V123.626H162.412V127.117H158.923V130.609H155.435V134.101H151.946V137.592H148.457V141.084H144.969V144.576Z" fill="#FEFEFE"/></g></svg>