<svg width="31" height="31" viewBox="0 0 31 31" fill="none" xmlns="http://www.w3.org/2000/svg"><path fill-rule="evenodd" clip-rule="evenodd" d="M9.99667 0.688029C10.3368 0.898206 10.5437 1.26883 10.5437 1.66782C10.5437 8.02941 12.1255 12.5729 15.0959 15.5347C18.0663 18.4965 22.623 20.0737 29.0031 20.0737C29.4032 20.0737 29.7749 20.28 29.9857 20.6192C30.1965 20.9583 30.2164 21.382 30.0383 21.7393C27.4562 26.9203 22.0923 30.4848 15.8912 30.4848C7.17124 30.4848 0.102295 23.4364 0.102295 14.7417C0.102295 8.55866 3.67721 3.2103 8.87324 0.635577C9.23158 0.458011 9.65653 0.477852 9.99667 0.688029ZM8.2826 3.64851C4.73755 6.07065 2.41436 10.1364 2.41436 14.7417C2.41436 22.1632 8.44815 28.1795 15.8912 28.1795C20.5099 28.1795 24.5875 25.863 27.0166 22.3283C21.2319 22.0249 16.6622 20.3568 13.461 17.1648C10.2598 13.9729 8.5868 9.41644 8.2826 3.64851Z" fill="#56B3C6"/></svg>