<svg width="21" height="20" viewBox="0 0 21 20" fill="none" xmlns="http://www.w3.org/2000/svg"><g clip-path="url(#clip0_432_68)"><path fill-rule="evenodd" clip-rule="evenodd" d="M15.8173 6.50218L14.8428 10.9429C14.6847 11.6707 14.4654 12.4385 14.3156 13.1172C14.2598 13.3703 14.1253 13.9944 14.0473 14.2035C13.9139 14.5612 13.6934 14.8002 13.2142 14.744C12.939 14.7118 12.6068 14.4102 12.3828 14.2271C12.1144 14.0078 11.5279 13.6015 11.2051 13.3776C10.694 13.0231 10.9285 12.9607 10.0662 13.7629C9.61123 14.1861 8.9829 15.0153 8.52633 14.0785C8.46235 13.9472 8.39593 13.7294 8.3446 13.5867L7.44075 11.0899C7.39087 11.0129 7.05419 10.9301 6.95687 10.8977C6.77042 10.8356 6.62442 10.7864 6.44369 10.7327C6.10477 10.6318 5.77263 10.5092 5.43286 10.3996C5.09203 10.2896 4.69047 10.1965 4.74482 9.71754C4.79143 9.30674 5.57942 9.07738 5.96423 8.91814C6.58543 8.66107 7.82159 8.17596 8.41707 7.97053C9.07403 7.7439 9.7252 7.48413 10.3891 7.24011C11.0601 6.9935 11.7091 6.7495 12.3837 6.51124C13.0573 6.27337 13.7171 6.02083 14.3794 5.78326C14.729 5.65786 15.6189 5.22913 15.8086 5.86284C15.8532 6.01204 15.8542 6.35614 15.8173 6.50218ZM0.888431 10.0186C0.884359 15.4714 5.30353 19.8805 10.7461 19.8808C16.1937 19.8811 20.6119 15.4603 20.6027 10.0186C20.5903 2.74668 13.0074 -1.8597 6.67773 1.05843C5.53552 1.585 4.64989 2.21807 3.78606 3.05866C3.40377 3.43066 2.98699 3.93421 2.6712 4.38926C1.73043 5.74488 1.16624 7.18909 0.961988 8.85003C0.915616 9.22709 0.888731 9.6158 0.888431 10.0186Z" fill="#56B3C6"/><path fill-rule="evenodd" clip-rule="evenodd" d="M11.8434 8.52793L9.90661 9.7392C9.55713 9.95689 8.09762 10.831 8.02034 10.9957C7.91095 11.2288 8.1276 11.6292 8.19158 11.8255C8.27928 12.0946 8.36877 12.3183 8.4673 12.5986C8.49937 12.6898 8.54543 12.9109 8.66887 12.8986C8.88253 12.8771 8.7806 11.9736 8.8954 11.5417C8.93602 11.3888 9.26731 11.1221 9.39958 11.0014C9.58958 10.8281 9.74947 10.6867 9.95017 10.5031L11.589 8.99833C11.6494 8.94098 11.9664 8.67616 11.9779 8.61413C11.9951 8.52209 11.9261 8.48526 11.8434 8.52793Z" fill="#56B3C6"/><path fill-rule="evenodd" clip-rule="evenodd" d="M9.25375 12.4636C9.24232 12.6674 9.11037 13.7018 9.16255 13.811C9.30092 13.9012 9.38857 13.7674 9.46601 13.6985C9.59384 13.5847 10.1589 13.0903 10.1781 13.0317C10.1907 12.8918 10.2272 12.9715 10.2924 12.8363C10.2256 12.6973 9.91371 12.5713 9.82225 12.4845C9.78869 12.4526 9.82785 12.4823 9.78474 12.4505C9.77897 12.4463 9.75977 12.4353 9.75361 12.4314L9.47151 12.2419C9.30591 12.1651 9.32181 12.316 9.29319 12.3956L9.25375 12.4636Z" fill="#56B3C6"/><path fill-rule="evenodd" clip-rule="evenodd" d="M9.25366 12.4634L9.2931 12.3954C9.32172 12.3159 9.30582 12.165 9.47142 12.2418L9.75352 12.4313C9.75968 12.4352 9.77888 12.4462 9.78465 12.4504C9.82776 12.4821 9.78861 12.4525 9.82216 12.4844C9.91362 12.5712 10.2255 12.6972 10.2923 12.8361C10.2271 12.9714 10.1906 12.8917 10.178 13.0316C10.2724 12.9932 10.3649 12.9076 10.3441 12.8129C10.3259 12.73 9.72863 12.3548 9.62263 12.2829C9.33866 12.09 9.2718 12.0835 9.25366 12.4634Z" fill="#56B3C6"/></g><defs><clipPath id="clip0_432_68"><rect width="20" height="20" fill="white" transform="translate(0.747314)"/></clipPath></defs></svg>