<svg width="27" height="12" viewBox="0 0 27 12" fill="none" xmlns="http://www.w3.org/2000/svg">
<path d="M0 6.67397V12C1.84404 9.83014 3.99541 8.10959 6.45413 6.83836C8.91284 5.54521 11.4495 4.89863 14.0642 4.89863C16.4862 4.89863 18.8211 5.39178 21.0688 6.37808C23.3165 7.34247 25.2936 8.67945 27 10.389V5.32603C25.367 3.68219 23.4404 2.38904 21.2202 1.44658C19.0092 0.482192 16.7064 0 14.3119 0C11.7431 0 9.23394 0.569863 6.7844 1.70959C4.34404 2.84932 2.08257 4.50411 0 6.67397Z" fill="#FEFEFE"/>
<path d="M0 6.67397V12C1.84404 9.83014 3.99541 8.10959 6.45413 6.83836C8.91284 5.54521 11.4495 4.89863 14.0642 4.89863C16.4862 4.89863 18.8211 5.39178 21.0688 6.37808C23.3165 7.34247 25.2936 8.67945 27 10.389V5.32603C25.367 3.68219 23.4404 2.38904 21.2202 1.44658C19.0092 0.482192 16.7064 0 14.3119 0C11.7431 0 9.23394 0.569863 6.7844 1.70959C4.34404 2.84932 2.08257 4.50411 0 6.67397Z" fill="#FEFEFE"/>
</svg>
