<svg width="182" height="182" viewBox="0 0 182 182" fill="none" xmlns="http://www.w3.org/2000/svg">
<path d="M124.587 141.726H96.7849H48.5919V138.871H39.5708V135.87H33.5565V132.869H30.5498V129.868H24.5354V123.865H21.5287V120.864H18.5211V108.859H15.5144V72.8434H12.5077V63.8394H9.5V21.0028H12.5077V15H25.356V18.0018H31.3695V21.0028H37.3838V24.0038H40.3905V27.0057H43.3981V30.0067H46.4048V33.0077H48.5919V30.0067H66.6332V27.0057H81.6686V24.0038H94.5169V27.0057H106.545V30.0067H124.587V33.0077H126.774V30.0067H129.781V27.0057H132.787V24.0038H135.795V21.0028H141.808V18.0018H147.823V15H160.671V21.0028H163.678V63.8394H160.671V72.8434H157.664V108.859H154.657V120.864H151.65V123.865H148.643V129.868H142.629V132.869H139.622V135.87H133.608V138.871H124.587V141.726ZM96.7849 138.133H120.84V135.132H129.862V132.131H135.876V129.129H138.883V126.128H144.897V120.125H147.904V117.124H150.91V105.12H153.918V69.1042H156.925V60.1001H159.931V24.7421H156.925V18.7392H151.569V21.7411H145.555C145.555 22.7142 145.567 23.6958 145.567 24.6626C143.54 24.7268 141.52 24.7421 139.541 24.7421V27.7431H136.534C136.534 27.9719 136.518 30.569 136.498 30.6007L133.527 30.7449V32.9178C133.517 32.9971 133.511 33.0783 133.508 33.1614C133.508 33.4233 133.499 33.6992 133.501 33.9765C133.428 34.2649 133.407 34.5815 133.448 34.9177H137.709V31.9167H140.715H143.722V25.9139H146.73H152.743V55.9265H146.73H143.722V49.9245H140.715V43.9217H131.694V36.8207C128.101 36.8011 124.504 36.7469 120.84 36.7469V33.7459H102.798V30.7449H90.7706V27.7431H85.415V30.7449H70.3795V33.7459H52.3383V36.7469C48.7306 36.7469 45.1077 36.8052 41.4844 36.8227V43.9217H32.4634V49.9245H29.4558V55.9265H26.4491H20.4348V25.9139H26.4491H29.4558V31.9167H32.4634H35.4701V34.9177H39.9458C39.8568 34.8486 39.7624 34.7877 39.6636 34.7345C39.6605 33.401 39.6517 32.0919 39.6517 30.7449L36.654 30.7263C36.6315 30.1151 36.6441 28.1926 36.6441 27.7431L33.6814 27.7574C33.656 27.7058 33.6374 24.968 33.6374 24.7421C32.558 24.7421 28.8393 24.7642 27.651 24.7305C27.5739 23.5779 27.6231 22.8388 27.6231 21.7411H21.6096V18.7392H16.2541V24.7421H13.2464V60.1001H16.2541V69.1042H19.2608V105.12H22.2675V117.124H25.2751V120.125H28.2818V126.128H34.2961V129.129H37.3029V132.131H43.3172V135.132H52.3383V138.133H96.7849ZM62.5619 91.607H59.4804H50.4594V88.9634H59.4804V88.941H50.5056V61.9294H59.5258V61.9517H62.5619V88.9634V91.607ZM125.755 91.5846H122.673H113.652V88.941V61.9294H122.673H125.755V88.941V91.5846ZM92.6033 94.9439V91.942H89.5966H86.589V94.9439H83.5823V91.942H80.5755V94.9439V100.946H83.5823V103.948H89.5966V100.946H92.6033V94.9439Z" fill="#56B3C6"/>
<path d="M142.772 138.468H137.806V167H142.772V138.468Z" fill="#56B3C6"/>
<path d="M137.807 162.043V167H172.239V162.043H137.807Z" fill="#56B3C6"/>
<path d="M147.471 157.347H142.505V162.303H147.471V157.347Z" fill="#56B3C6"/>
<path d="M147.315 152.577V157.534H158.748V152.577H147.315Z" fill="#56B3C6"/>
<path d="M158.084 138.483V143.44H172.982V138.483H158.084Z" fill="#56B3C6"/>
<path d="M172.982 138.483H168.016V153.353H172.982V138.483Z" fill="#56B3C6"/>
<path d="M168.241 143.142H163.275V148.098H168.241V143.142Z" fill="#56B3C6"/>
<path d="M163.518 147.968H158.552V152.924H163.518V147.968Z" fill="#56B3C6"/>
</svg>
