<svg width="182" height="182" viewBox="0 0 182 182" fill="none" xmlns="http://www.w3.org/2000/svg">
<g clip-path="url(#clip0_374_69)">
<mask id="mask0_374_69" style="mask-type:luminance" maskUnits="userSpaceOnUse" x="7" y="14" width="168" height="154">
<path d="M175 14H7V168H175V14Z" fill="white"/>
</mask>
<g mask="url(#mask0_374_69)">
<path d="M123.188 142.562H95.3194H47.0105V139.701H37.9676V136.694H31.9388V133.686H28.9249V130.679H22.8961V124.664H19.8821V121.657H16.8673V109.628H13.8534V73.5403H10.8394V64.5182H7.82446V21.5955H10.8394V15.5806H23.7186V18.5884H29.7466V21.5955H35.7754V24.6025H38.7893V27.6104H41.8041V30.6174H44.8181V33.6245H47.0105V30.6174H65.0951V27.6104H80.1667V24.6025H93.046V27.6104H105.103V30.6174H123.188V33.6245H125.381V30.6174H128.395V27.6104H131.408V24.6025H134.423V21.5955H140.451V18.5884H146.48V15.5806H159.359V21.5955H162.373V64.5182H159.359V73.5403H156.345V109.628H153.331V121.657H150.317V124.664H147.303V130.679H141.274V133.686H138.26V136.694H132.231V139.701H123.188V142.562ZM95.3194 138.961H119.433V135.954H128.476V132.947H134.505V129.939H137.518V126.932H143.547V120.917H146.561V117.91H149.575V105.881H152.59V69.7936H155.604V60.7714H158.618V25.3423H155.604V19.3273H150.236V22.3352H144.207C144.207 23.3103 144.219 24.2939 144.219 25.2626C142.187 25.327 140.162 25.3423 138.179 25.3423V28.3493H135.164C135.164 28.5786 135.148 31.1809 135.128 31.2126L132.15 31.3572V33.5344C132.14 33.6139 132.133 33.6952 132.131 33.7785C132.131 34.0409 132.122 34.3174 132.124 34.5952C132.051 34.8842 132.029 35.2014 132.07 35.5383H136.342V32.5313H139.356H142.37V26.5164H145.384H151.412V56.5894H145.384H142.37V50.5753H139.356V44.5604H130.313V37.4452C126.71 37.4255 123.105 37.3712 119.433 37.3712V34.3642H101.347V31.3572H89.2906V28.3493H83.9221V31.3572H68.8505V34.3642H50.7659V37.3712C47.1495 37.3712 43.5179 37.4297 39.8859 37.4472V44.5604H30.8431V50.5753H27.8283V56.5894H24.8144H18.7856V26.5164H24.8144H27.8283V32.5313H30.8431H33.8571V35.5383H38.3435C38.2543 35.4691 38.1597 35.408 38.0607 35.3548C38.0576 34.0186 38.0487 32.7069 38.0487 31.3572L35.0438 31.3385C35.0213 30.7261 35.0339 28.7997 35.0339 28.3493L32.064 28.3636C32.0386 28.3119 32.02 25.5686 32.02 25.3423C30.938 25.3423 27.2103 25.3645 26.0192 25.3307C25.9419 24.1757 25.9912 23.4351 25.9912 22.3352H19.9632V19.3273H14.5948V25.3423H11.5799V60.7714H14.5948V69.7936H17.6087V105.881H20.6227V117.91H23.6375V120.917H26.6515V126.932H32.6803V129.939H35.6942V132.947H41.723V135.954H50.7659V138.961H95.3194ZM61.0141 92.3416H57.9252H48.8824V89.6927H57.9252V89.6703H48.9287V62.6043H57.9706V62.6267H61.0141V89.6927V92.3416ZM124.359 92.3192H121.27H112.227V89.6703V62.6043H121.27H124.359V89.6703V92.3192ZM91.1277 95.6852V92.6773H88.1138H85.099V95.6852H82.085V92.6773H79.071V95.6852V101.699H82.085V104.707H88.1138V101.699H91.1277V95.6852Z" fill="#56B3C6"/>
<path fill-rule="evenodd" clip-rule="evenodd" d="M142.254 154.858H133.595V157.627H135.433V157.749H135.555V161.538H137.393V165.448H142.254V154.858ZM125.752 115.878V116.814H127.713V118.769H130.613V116.936H132.573V113.026H134.534V111.968H131.512V113.923H127.713V115.878H125.752ZM123.281 114.981H124.731V113.026H126.692V111.071H130.613V109.116H136.372V107.161H151.117V108.994H156.999V110.949H160.92V112.904H162.758V114.859H164.718V116.814H166.679V118.769H168.64V120.724H170.6V124.635H172.561V130.5H174.521V145.082H172.561V150.948H170.6V154.858H168.64V155.794H170.6V160.724H164.718V161.538H166.679V166.589H164.718V168.422H159.776V166.589H157.816V162.679H156.999V164.512H156.876V164.634H155.038V166.589H151.117V168.422H136.372V166.589H130.49V164.634H126.569V162.679H124.609V160.724H122.771V158.768H120.81V156.813H118.85V154.858H116.889V150.948H114.929V145.082H112.968V130.5H114.929V124.635H116.889V120.724H118.85V118.769H120.81V116.814H122.771V114.981H123.281ZM136.883 113.923H135.433V117.833H133.472V120.724H142.254V110.135H137.393V113.923H136.883ZM132.573 123.189V121.743H131.634V127.608H129.674V136.243H142.254V123.698H132.573V123.189ZM124.731 117.833H123.792V119.788H121.831V121.743H119.871V125.653H117.91V131.519H115.95V136.365H126.692V126.59H128.53V121.743H126.692V119.788H124.731V117.833ZM166.679 152.394V153.839H167.618V149.929H169.579V144.064H171.539V139.217H160.797V147.974H162.758V149.929H164.718V151.884H166.679V152.394ZM163.697 154.349V152.903H161.737V150.948H159.776V148.993H157.816V147.038H155.855V145.082H153.894V143.25H153.078V163.493H153.894V161.538H155.855V159.582H158.837V159.705H158.959V161.538H160.92V165.448H163.697V162.679H161.737V157.749H167.618V156.813H165.658V154.858H163.697V154.349ZM123.792 156.304V157.749H124.731V155.794H126.692V153.839H128.53V148.993H126.692V139.217H115.95V144.064H117.91V149.929H119.871V153.839H121.831V155.794H123.792V156.304ZM165.658 121.234V119.788H163.697V117.833H162.758V119.788H160.797V121.743H158.837V126.59H160.797V136.365H171.539V131.519H169.579V125.653H167.618V121.743H165.658V121.234ZM127.203 158.768H125.752V159.582H127.713V161.538H131.634V163.493H134.412V162.679H132.451V158.768H130.49V156.813H127.713V158.768H127.203ZM160.287 116.814H161.737V116H159.776V114.045H155.855V112.09H153.078V112.904H155.038V116.814H156.999V118.769H159.776V116.814H160.287ZM149.973 165.448V154.858H145.235V165.448H149.973ZM156.999 144.064H157.816V139.339H145.235V151.884H150.096V140.153H155.038V142.109H156.999V144.064ZM142.254 139.339H129.674V147.974H131.634V153.839H132.451V151.884H142.254V139.339ZM157.816 136.365V127.608H155.855V121.743H155.038V123.698H145.235V136.365H157.816ZM149.973 110.135H145.235V120.724H153.894V117.955H152.056V117.833H151.934V114.045H149.973V110.135Z" fill="#56B3C6"/>
<path fill-rule="evenodd" clip-rule="evenodd" d="M145.235 154.858V165.448H149.973V154.858H145.235Z" fill="white"/>
<path fill-rule="evenodd" clip-rule="evenodd" d="M142.254 165.448V154.858H133.595V157.627H135.433V157.75H135.555V161.538H137.393V165.448H142.254Z" fill="white"/>
<path fill-rule="evenodd" clip-rule="evenodd" d="M132.451 151.884H142.254V139.339H129.674V147.974H131.634V153.839H132.451V151.884Z" fill="white"/>
<path fill-rule="evenodd" clip-rule="evenodd" d="M145.235 139.339V151.884H150.096V140.153H155.038V142.109H156.999V144.064H157.815V139.339H145.235Z" fill="white"/>
<path fill-rule="evenodd" clip-rule="evenodd" d="M145.235 136.365H157.815V127.608H155.855V121.743H155.038V123.698H145.235V136.365Z" fill="white"/>
<path fill-rule="evenodd" clip-rule="evenodd" d="M142.254 136.243V123.698H132.573V123.189V121.743H131.634V127.608H129.674V136.243H142.254Z" fill="white"/>
<path fill-rule="evenodd" clip-rule="evenodd" d="M133.472 120.724H142.254V110.135H137.393V113.923H136.883H135.433V117.833H133.472V120.724Z" fill="white"/>
<path fill-rule="evenodd" clip-rule="evenodd" d="M145.235 110.135V120.724H153.894V117.955H152.056V117.833H151.934V114.045H149.973V110.135H145.235Z" fill="white"/>
<path fill-rule="evenodd" clip-rule="evenodd" d="M157.816 147.037H155.855V145.082H153.894V143.25H153.078V163.493H153.894V161.538H155.855V159.582H158.837V159.705H158.959V161.538H160.92V165.448H163.697V162.679H161.737V157.749H167.618V156.813H165.658V154.858H163.697V154.349V152.903H161.737V150.948H159.776V148.993H157.816V147.037Z" fill="white"/>
<path fill-rule="evenodd" clip-rule="evenodd" d="M160.797 139.217V147.974H162.758V149.929H164.718V151.884H166.679V152.394V153.839H167.618V149.929H169.579V144.064H171.539V139.217H160.797Z" fill="white"/>
<path fill-rule="evenodd" clip-rule="evenodd" d="M160.797 136.365H171.539V131.519H169.579V125.653H167.618V121.743H165.658V121.234V119.788H163.697V117.833H162.758V119.788H160.797V121.743H158.837V126.59H160.797V136.365Z" fill="white"/>
<path fill-rule="evenodd" clip-rule="evenodd" d="M156.999 118.769H159.776V116.814H160.287H161.737V116H159.776V114.045H155.855V112.09H153.078V112.904H155.038V116.814H156.999V118.769Z" fill="white"/>
<path fill-rule="evenodd" clip-rule="evenodd" d="M132.573 116.936V113.026H134.534V111.968H131.512V113.923H127.713V115.878H125.752V116.814H127.713V118.769H130.613V116.936H132.573Z" fill="white"/>
<path fill-rule="evenodd" clip-rule="evenodd" d="M128.53 121.743H126.692V119.788H124.731V117.833H123.792V119.788H121.831V121.743H119.871V125.653H117.91V131.519H115.95V136.365H126.692V126.59H128.53V121.743Z" fill="white"/>
<path fill-rule="evenodd" clip-rule="evenodd" d="M126.692 139.217H115.95V144.064H117.91V149.929H119.871V153.839H121.831V155.794H123.792V156.304V157.75H124.731V155.794H126.692V153.839H128.53V148.993H126.692V139.217Z" fill="white"/>
<path fill-rule="evenodd" clip-rule="evenodd" d="M130.49 156.813H127.713V158.768H127.203H125.752V159.582H127.713V161.538H131.634V163.493H134.412V162.679H132.451V158.768H130.49V156.813Z" fill="white"/>
</g>
</g>
<defs>
<clipPath id="clip0_374_69">
<rect width="168" height="154" fill="white" transform="translate(7 14)"/>
</clipPath>
</defs>
</svg>
