<svg width="121" height="120" viewBox="0 0 121 120" fill="none" xmlns="http://www.w3.org/2000/svg">
<g clip-path="url(#clip0_174_429)">
<path d="M41.7333 12.8135H38.3765V19.5755H41.7333V12.8135Z" fill="#FEFEFE"/>
<path d="M41.7333 2.67047H38.3765V9.43247H41.7333V2.67047Z" fill="#FEFEFE"/>
<path d="M41.7334 9.43248L41.7334 12.8135L48.4471 12.8135L48.4471 9.43248L41.7334 9.43248Z" fill="#FEFEFE"/>
<path d="M31.6628 9.43248L31.6628 12.8135L38.3765 12.8135L38.3765 9.43248L31.6628 9.43248Z" fill="#FEFEFE"/>
<path d="M101.932 110.659H98.575V117.421H101.932V110.659Z" fill="#FEFEFE"/>
<path d="M101.932 100.516H98.575V107.278H101.932V100.516Z" fill="#FEFEFE"/>
<path d="M101.932 107.278L101.932 110.659L108.645 110.659L108.645 107.278L101.932 107.278Z" fill="#FEFEFE"/>
<path d="M91.8611 107.278L91.8611 110.659L98.5748 110.659L98.5748 107.278L91.8611 107.278Z" fill="#FEFEFE"/>
<path d="M115.83 84.9802H112.473V88.3612H115.83V84.9802Z" fill="#FEFEFE"/>
<path d="M115.83 76.5277H112.473V79.9087H115.83V76.5277Z" fill="#FEFEFE"/>
<path d="M116.669 80.754L116.669 84.135L120.026 84.135L120.026 80.754L116.669 80.754Z" fill="#FEFEFE"/>
<path d="M108.277 80.754L108.277 84.135L111.634 84.135L111.634 80.754L108.277 80.754Z" fill="#FEFEFE"/>
<path d="M75.6222 22.1312H72.2654V25.5122H75.6222V22.1312Z" fill="#FEFEFE"/>
<path d="M75.6222 13.6788H72.2654V17.0598H75.6222V13.6788Z" fill="#FEFEFE"/>
<path d="M76.4614 17.905L76.4614 21.2859L79.8183 21.2859L79.8183 17.905L76.4614 17.905Z" fill="#FEFEFE"/>
<path d="M68.0693 17.905L68.0693 21.2859L71.4262 21.2859L71.4262 17.905L68.0693 17.905Z" fill="#FEFEFE"/>
<path d="M22.821 110.659H19.4641V117.421H22.821V110.659Z" fill="#FEFEFE"/>
<path d="M22.821 100.516H19.4641V107.278H22.821V100.516Z" fill="#FEFEFE"/>
<path d="M22.821 107.278L22.821 110.659L29.5347 110.659L29.5347 107.278L22.821 107.278Z" fill="#FEFEFE"/>
<path d="M12.7505 107.278L12.7505 110.659L19.4642 110.659L19.4642 107.278L12.7505 107.278Z" fill="#FEFEFE"/>
<path d="M8.43595 86.0344H5.0791V89.4154H8.43595V86.0344Z" fill="#FEFEFE"/>
<path d="M8.43595 77.5818H5.0791V80.9628H8.43595V77.5818Z" fill="#FEFEFE"/>
<path d="M9.27515 81.8081L9.27515 85.1891L12.632 85.1891L12.632 81.8081L9.27515 81.8081Z" fill="#FEFEFE"/>
<path d="M0.883057 81.8081L0.883057 85.1891L4.2399 85.1891L4.2399 81.8081L0.883057 81.8081Z" fill="#FEFEFE"/>
<path fill-rule="evenodd" clip-rule="evenodd" d="M75.54 61.976C75.7649 63.0073 76.3391 63.9372 76.8345 64.4951L78.2674 66.1088L76.1284 65.8973C75.4481 65.8301 74.4224 65.4823 73.4469 65.1517C72.9135 64.9709 72.396 64.7954 71.9709 64.6811L71.8619 64.651C71.3898 64.5246 70.8282 64.3742 70.2979 64.1354C69.025 63.5623 68.0785 62.621 68.8718 60.8338C69.1554 60.1945 70.2313 58.777 71.4999 57.2288C73.29 55.0439 75.4933 52.5484 76.3223 51.6968C76.5668 51.4458 76.7937 51.2185 77.023 50.9964C77.2284 50.7973 77.4608 50.5796 77.7385 50.326L77.7376 50.3249L79.1442 48.9925L80.0968 48.1982C81.7632 46.8121 83.3668 45.478 85.4099 44.0927C87.6038 42.605 89.812 41.2454 92.1872 39.9967C94.5608 38.7488 97.0952 37.616 99.9407 36.583C101.23 36.1148 102.669 35.6173 104.081 35.1875C105.537 34.7443 107.03 34.3489 108.424 34.0865C110.509 33.694 111.185 34.8257 111.472 36.3718C111.559 36.8396 111.599 37.3058 111.639 37.7711L111.654 37.9447C112.192 44.1548 111.938 50.7937 110.95 57.3011C109.975 63.7252 108.279 70.0321 105.92 75.6826L105.921 75.6833L105.858 75.8347C105.462 76.7963 105.207 77.4149 103.962 77.6213C103.432 77.7091 102.901 77.6143 102.447 77.4034C101.955 77.1743 101.539 76.7972 101.302 76.3578C100.721 75.2821 101.445 73.6087 101.974 72.3878C102.091 72.117 102.197 71.8734 102.272 71.6682C103.092 69.4138 103.744 67.4144 104.298 65.3856C104.854 63.3502 105.318 61.2631 105.761 58.8364C106.162 56.6419 106.816 51.0373 107.044 46.2227C107.177 43.4162 107.169 40.9115 106.886 39.5986C105.974 39.6263 104.153 40.2016 102.284 40.8871C99.9805 41.7323 97.6204 42.7673 96.655 43.1958C95.016 43.923 93.2907 44.8211 91.6529 45.7813C89.9855 46.759 88.405 47.8033 87.0954 48.7997C85.7181 49.8475 84.7998 50.5618 83.9474 51.2778C83.0883 51.9996 82.2309 52.7771 80.973 53.9534C80.625 54.2789 80.3083 54.5848 80.0084 54.8888C79.7143 55.187 79.4157 55.505 79.0941 55.8649C78.9605 56.0146 78.7452 56.2494 78.5027 56.514C77.5373 57.5676 76.0981 59.1383 75.7411 59.8529C75.4029 60.53 75.3868 61.2736 75.54 61.976ZM102.582 59.9089C101.284 65.7024 99.6463 71.3218 98.3877 73.1329L97.9246 73.7992L94.2009 71.3869C92.9005 70.5972 91.7118 70.1566 90.6642 69.7684C89.2737 69.253 88.1063 68.8202 87.1065 67.8091C86.5627 67.2594 86.0884 66.5732 85.7897 65.7422C85.5326 65.0267 85.4066 64.2126 85.4798 63.2986C85.6352 61.3619 86.7404 60.7753 88.0705 60.0696L88.404 59.891L94.7604 56.2693L89.3691 56.8506L96.5368 52.6181L91.4798 53.1529L94.5984 51.2098C94.9036 51.0197 95.644 50.5992 96.5091 50.1079L97.5662 49.5068L96.0436 49.6634L96.7354 48.2862C96.9551 47.8487 97.6052 47.2348 98.3803 46.6081C99.5678 45.648 101.107 44.5838 101.643 44.2244L101.73 44.1637L101.732 44.166C102.056 43.9439 102.584 43.5832 103.138 43.5044C103.917 43.3942 104.573 43.6762 104.737 44.8489C105.033 46.9679 104 53.5808 102.582 59.9089ZM49.7708 64.4504C49.7398 64.4603 49.7398 64.4572 49.729 64.4622L49.6704 64.4896L46.1671 65.4916L41.7776 66.8161L44.1006 64.4582C44.5886 63.9629 45.1359 63.0307 45.3621 62.0006C45.5221 61.2719 45.5111 60.5074 45.176 59.856C44.8862 59.2927 44.4243 58.7836 43.9755 58.2888L43.5754 57.8471L43.5774 57.8453L41.8251 55.8712L41.824 55.8721C39.4545 53.3168 36.5635 50.7856 33.4704 48.5532C30.4759 46.3921 27.3092 44.5216 24.2616 43.1918C23.2997 42.7721 20.965 41.7548 18.6246 40.8982C16.7705 40.2194 14.9616 39.6469 14.0301 39.6041C13.7517 40.993 13.7332 43.418 13.8502 46.1017C14.0495 50.6768 14.6519 55.939 15.0427 58.2505C15.2793 59.6514 15.5605 61.052 15.8768 62.4372C16.2065 63.8806 16.579 65.3209 16.9829 66.7386C17.557 68.7528 18.1285 70.1915 18.6575 71.5234C19.0337 72.4706 19.3894 73.366 19.7173 74.3875C19.9428 75.0902 19.8788 75.722 19.6349 76.2452C19.4326 76.6794 19.1102 77.0256 18.7291 77.2668C18.3569 77.5025 17.9235 77.6416 17.4894 77.6666C16.8997 77.701 16.2999 77.527 15.8268 77.1055C15.2283 76.5724 14.353 74.1424 14.0163 73.2072L13.9966 73.1527C12.454 68.8712 11.2377 64.509 10.3909 60.0402C9.54509 55.5764 9.06816 51.0012 9.00346 46.2882C8.98476 44.9182 8.96141 43.0097 9.01192 41.1296C9.06375 39.2034 9.19207 37.3006 9.47765 35.9952C9.94648 33.8512 11.5734 33.8998 13.2271 34.2664C13.4459 34.315 13.7129 34.3829 13.9733 34.4491L14.0456 34.4676C14.7129 34.6372 15.3825 34.8132 16.0982 35.013C16.7585 35.1972 17.4292 35.3965 18.135 35.6233C22.0259 36.874 25.7116 38.4044 29.182 40.2337C32.6623 42.0682 35.9243 44.2004 38.9574 46.6492C39.2027 46.8473 39.485 47.0813 39.7613 47.3105C39.9595 47.4749 40.1532 47.6357 40.4645 47.8867L40.4944 47.9108L47.1604 54.5228L47.1959 54.5692C47.7341 55.2714 48.2646 55.8925 48.8012 56.5206C49.7347 57.6134 50.6874 58.7286 51.8138 60.4247C52.9111 62.077 52.1847 63.1411 51.2064 63.8003C50.6664 64.1639 50.0625 64.3572 49.7708 64.4504ZM25.8145 52.7111L24.2791 52.557L24.747 52.8116C26.3466 53.6815 27.894 54.523 28.3433 54.9677L30.0647 56.6719L26.1024 56.2385L29.1091 57.9746L29.1081 57.9764C29.7048 58.3044 30.3024 58.6518 30.9099 59.0046C31.3685 59.271 31.8342 59.5417 32.3994 59.8586C32.5963 59.9689 32.7648 60.0563 32.9296 60.1415H32.933C34.1327 60.7625 35.1911 61.3104 35.4079 63.1261C35.5144 64.0183 35.4033 64.8536 35.1573 65.594C34.8709 66.456 34.3992 67.1863 33.8748 67.7267C32.8828 68.7485 31.6939 69.2087 30.2205 69.7788C28.8396 70.3132 27.1812 70.9549 25.2379 72.3023C25.1059 72.3937 24.9459 72.5152 24.7903 72.6332H24.787C24.4151 72.9152 24.0631 73.1824 23.5581 73.4206L22.8981 73.7318L22.5007 73.1164C21.1489 71.0227 19.3965 64.8889 18.0793 58.8022C16.7031 52.4434 15.7937 46.0468 16.296 44.2453L16.4157 43.8162L16.8345 43.6732C18.1783 43.2146 19.6547 44.3834 20.8538 45.3329L21.0042 45.4519L21.0029 45.4536L21.4912 45.8407C21.8209 46.1046 22.1385 46.3591 22.4392 46.5866L22.5404 46.663L22.5419 46.6608C23.0561 47.0477 23.8496 47.6449 24.1626 48.2771L24.8466 49.6582L23.3651 49.4988C24.6332 50.2241 25.8826 50.914 26.2775 51.117L30.2427 53.1554L25.8145 52.7111Z" fill="#FEFEFE"/>
</g>
<defs>
<clipPath id="clip0_174_429">
<rect width="119.143" height="120" fill="white" transform="translate(0.928467)"/>
</clipPath>
</defs>
</svg>
