<svg width="132" height="120" viewBox="0 0 132 120" fill="none" xmlns="http://www.w3.org/2000/svg">
<g clip-path="url(#clip0_174_498)">
<path fill-rule="evenodd" clip-rule="evenodd" d="M68.8317 80.3747C69.439 79.5979 69.9601 79.1534 70.4738 78.3422C75.6938 70.0969 75.4649 57.3934 73.32 48.397C72.2341 43.8427 71.0918 42.7547 68.8399 39.6437C75.0475 39.816 80.2266 41.4157 85.4389 43.2442C86.5403 43.6304 87.0839 43.9266 88.1351 44.3552C90.7188 45.4086 91.1019 45.7351 93.4203 46.8702C95.132 47.7082 96.7178 48.7744 98.3442 49.7225C100.905 51.2152 109.746 57.877 111.196 60.0059C109.969 61.4999 104.881 65.7277 102.78 67.2006C93 74.0541 82.4996 79.745 68.8317 80.3747ZM20.5864 60.0059C21.816 58.5935 23.3177 57.5132 24.7381 56.2349L26.8823 54.4213C27.53 53.8103 28.2729 53.3432 29.0352 52.811C35.6669 48.1806 41.0733 44.7048 49.6837 42.0901C52.4329 41.2554 60.0064 39.3446 63.0053 39.7265C56.0536 45.5062 54.7869 68.412 61.4409 78.4512C62.3429 79.812 62.5011 79.3247 62.9731 80.3679C56.1233 80.1798 49.542 78.1128 43.6754 75.6606L38.3903 73.1441C36.7114 72.3205 35.0008 71.1998 33.4828 70.2764L28.8745 67.1467C26.9343 65.7325 21.635 61.4201 20.5864 60.0059ZM10.4136 59.8802V60.1282C10.936 60.5279 14.1053 64.3398 15.4982 65.4921C21.1118 70.1364 22.516 72.2485 29.996 76.6707C31.1013 77.3241 31.9441 77.9521 33.1465 78.5659C34.2744 79.1417 35.4253 79.833 36.5429 80.4081C44.859 84.6883 56.2748 87.5532 65.907 87.6101C80.1223 87.6941 95.416 81.6164 105.147 74.5639C106.192 73.8062 107.109 73.184 108.199 72.3691C111.97 69.5495 117.092 65.1003 120.143 61.4355L121.014 60.4427C121.232 60.2237 121.163 60.308 121.4 60.1448V59.8752L120.609 59.131C120.388 58.8648 120.302 58.7216 120.076 58.4387C119.73 58.0051 119.222 57.4377 118.887 57.1272C117.874 56.1857 117.245 55.3081 116.319 54.5153C115.246 53.5958 114.563 52.9184 113.57 52.0603L110.868 49.7604C99.396 39.9438 82.4667 32.4923 65.907 32.4025C50.5161 32.3191 35.0686 38.9389 23.619 47.6454C22.6515 48.3811 21.8617 49.0385 20.8397 49.8624C17.9709 52.1752 14.1028 55.6264 11.671 58.576L10.8074 59.5739C10.5767 59.8141 10.6743 59.7026 10.4136 59.8802Z" fill="#FEFEFE"/>
<path d="M45.4333 12.8135H41.7544V19.5755H45.4333V12.8135Z" fill="#FEFEFE"/>
<path d="M45.4333 2.67047H41.7544V9.43247H45.4333V2.67047Z" fill="#FEFEFE"/>
<path d="M45.4333 9.43248L45.4333 12.8135L52.7911 12.8135L52.7911 9.43248L45.4333 9.43248Z" fill="#FEFEFE"/>
<path d="M34.3967 9.43248L34.3967 12.8135L41.7545 12.8135L41.7545 9.43248L34.3967 9.43248Z" fill="#FEFEFE"/>
<path d="M111.407 110.659H107.728V117.421H111.407V110.659Z" fill="#FEFEFE"/>
<path d="M111.407 100.516H107.728V107.278H111.407V100.516Z" fill="#FEFEFE"/>
<path d="M111.407 107.278L111.407 110.659L118.765 110.659L118.765 107.278L111.407 107.278Z" fill="#FEFEFE"/>
<path d="M100.37 107.278L100.37 110.659L107.728 110.659L107.728 107.278L100.37 107.278Z" fill="#FEFEFE"/>
<path d="M126.638 84.9802H122.959V88.3612H126.638V84.9802Z" fill="#FEFEFE"/>
<path d="M126.638 76.5277H122.959V79.9087H126.638V76.5277Z" fill="#FEFEFE"/>
<path d="M127.558 80.754L127.558 84.135L131.237 84.135L131.237 80.754L127.558 80.754Z" fill="#FEFEFE"/>
<path d="M118.361 80.754L118.361 84.135L122.04 84.135L122.04 80.754L118.361 80.754Z" fill="#FEFEFE"/>
<path d="M82.5732 22.1312H78.8943V25.5122H82.5732V22.1312Z" fill="#FEFEFE"/>
<path d="M82.5732 13.6788H78.8943V17.0598H82.5732V13.6788Z" fill="#FEFEFE"/>
<path d="M83.4929 17.905L83.4929 21.2859L87.1718 21.2859L87.1718 17.905L83.4929 17.905Z" fill="#FEFEFE"/>
<path d="M74.2957 17.905L74.2957 21.2859L77.9745 21.2859L77.9745 17.905L74.2957 17.905Z" fill="#FEFEFE"/>
<path d="M24.7065 110.659H21.0276V117.421H24.7065V110.659Z" fill="#FEFEFE"/>
<path d="M24.7065 100.516H21.0276V107.278H24.7065V100.516Z" fill="#FEFEFE"/>
<path d="M24.7065 107.278L24.7065 110.659L32.0643 110.659L32.0643 107.278L24.7065 107.278Z" fill="#FEFEFE"/>
<path d="M13.6699 107.278L13.6699 110.659L21.0277 110.659L21.0277 107.278L13.6699 107.278Z" fill="#FEFEFE"/>
<path d="M8.94158 86.0344H5.2627V89.4154H8.94158V86.0344Z" fill="#FEFEFE"/>
<path d="M8.94158 77.5818H5.2627V80.9628H8.94158V77.5818Z" fill="#FEFEFE"/>
<path d="M9.86133 81.8081L9.86133 85.1891L13.5402 85.1891L13.5402 81.8081L9.86133 81.8081Z" fill="#FEFEFE"/>
<path d="M0.664063 81.8081L0.664062 85.1891L4.34294 85.1891L4.34294 81.8081L0.664063 81.8081Z" fill="#FEFEFE"/>
</g>
<defs>
<clipPath id="clip0_174_498">
<rect width="130.573" height="120" fill="white" transform="translate(0.713623)"/>
</clipPath>
</defs>
</svg>
