<svg width="30" height="30" viewBox="0 0 30 30" fill="none" xmlns="http://www.w3.org/2000/svg">
<path fill-rule="evenodd" clip-rule="evenodd" d="M6.604 15C6.604 10.363 10.3631 6.60394 15.0001 6.60394C19.6371 6.60394 23.3961 10.363 23.3961 15C23.3961 19.637 19.6371 23.3961 15.0001 23.3961C10.3631 23.3961 6.604 19.637 6.604 15ZM15.0001 8.46974C11.3935 8.46974 8.4698 11.3934 8.4698 15C8.4698 18.6066 11.3935 21.5303 15.0001 21.5303C18.6066 21.5303 21.5304 18.6066 21.5304 15C21.5304 11.3934 18.6066 8.46974 15.0001 8.46974Z" fill="#FEFEFE"/>
<path fill-rule="evenodd" clip-rule="evenodd" d="M26.5056 15.0001C26.5056 14.4849 26.9233 14.0672 27.4385 14.0672H28.6824C29.1976 14.0672 29.6153 14.4849 29.6153 15.0001C29.6153 15.5153 29.1976 15.933 28.6824 15.933H27.4385C26.9233 15.933 26.5056 15.5153 26.5056 15.0001Z" fill="#FEFEFE"/>
<path fill-rule="evenodd" clip-rule="evenodd" d="M14.9998 0.384644C15.515 0.384644 15.9327 0.802316 15.9327 1.31754V2.5614C15.9327 3.07663 15.515 3.4943 14.9998 3.4943C14.4846 3.4943 14.0669 3.07663 14.0669 2.5614V1.31754C14.0669 0.802316 14.4846 0.384644 14.9998 0.384644Z" fill="#FEFEFE"/>
<path fill-rule="evenodd" clip-rule="evenodd" d="M14.9998 26.5058C15.515 26.5058 15.9327 26.9235 15.9327 27.4387V28.6826C15.9327 29.1978 15.515 29.6155 14.9998 29.6155C14.4846 29.6155 14.0669 29.1978 14.0669 28.6826V27.4387C14.0669 26.9235 14.4846 26.5058 14.9998 26.5058Z" fill="#FEFEFE"/>
<path fill-rule="evenodd" clip-rule="evenodd" d="M23.0474 23.0474C23.4117 22.6831 24.0024 22.6831 24.3667 23.0474L25.6106 24.2913C25.9749 24.6556 25.9749 25.2463 25.6106 25.6106C25.2463 25.9749 24.6556 25.9749 24.2913 25.6106L23.0474 24.3667C22.6831 24.0024 22.6831 23.4117 23.0474 23.0474Z" fill="#FEFEFE"/>
<path fill-rule="evenodd" clip-rule="evenodd" d="M25.6106 4.38945C25.9749 4.75377 25.9749 5.34445 25.6106 5.70877L24.3667 6.95263C24.0024 7.31695 23.4117 7.31695 23.0474 6.95263C22.6831 6.58831 22.6831 5.99763 23.0474 5.63331L24.2913 4.38945C24.6556 4.02513 25.2463 4.02513 25.6106 4.38945Z" fill="#FEFEFE"/>
<path fill-rule="evenodd" clip-rule="evenodd" d="M6.95238 23.0474C7.3167 23.4117 7.3167 24.0024 6.95238 24.3667L5.70852 25.6106C5.3442 25.9749 4.75352 25.9749 4.38921 25.6106C4.02489 25.2463 4.02489 24.6556 4.38921 24.2913L5.63307 23.0474C5.99739 22.6831 6.58806 22.6831 6.95238 23.0474Z" fill="#FEFEFE"/>
<path fill-rule="evenodd" clip-rule="evenodd" d="M4.38921 4.38945C4.75352 4.02513 5.3442 4.02513 5.70852 4.38945L6.95238 5.63331C7.3167 5.99763 7.3167 6.58831 6.95238 6.95263C6.58806 7.31695 5.99739 7.31695 5.63307 6.95263L4.38921 5.70877C4.02489 5.34445 4.02489 4.75377 4.38921 4.38945Z" fill="#FEFEFE"/>
<path fill-rule="evenodd" clip-rule="evenodd" d="M0.384521 15.0001C0.384521 14.4849 0.802194 14.0672 1.31742 14.0672H2.56128C3.07651 14.0672 3.49418 14.4849 3.49418 15.0001C3.49418 15.5153 3.07651 15.933 2.56128 15.933H1.31742C0.802194 15.933 0.384521 15.5153 0.384521 15.0001Z" fill="#FEFEFE"/>
</svg>
