<svg width="27" height="12" viewBox="0 0 27 12" fill="none" xmlns="http://www.w3.org/2000/svg"><path d="M0 5.32603V0C1.84404 2.16986 3.99541 3.89041 6.45413 5.16164C8.91284 6.45479 11.4495 7.10137 14.0642 7.10137C16.4862 7.10137 18.8211 6.60822 21.0688 5.62192C23.3165 4.65753 25.2936 3.32055 27 1.61096V6.67397C25.367 8.31781 23.4404 9.61096 21.2202 10.5534C19.0092 11.5178 16.7064 12 14.3119 12C11.7431 12 9.23394 11.4301 6.7844 10.2904C4.34404 9.15068 2.08257 7.49589 0 5.32603Z" fill="#FEFEFE"/><path d="M0 5.32603V0C1.84404 2.16986 3.99541 3.89041 6.45413 5.16164C8.91284 6.45479 11.4495 7.10137 14.0642 7.10137C16.4862 7.10137 18.8211 6.60822 21.0688 5.62192C23.3165 4.65753 25.2936 3.32055 27 1.61096V6.67397C25.367 8.31781 23.4404 9.61096 21.2202 10.5534C19.0092 11.5178 16.7064 12 14.3119 12C11.7431 12 9.23394 11.4301 6.7844 10.2904C4.34404 9.15068 2.08257 7.49589 0 5.32603Z" fill="#FEFEFE"/></svg>