<svg width="182" height="182" viewBox="0 0 182 182" fill="none" xmlns="http://www.w3.org/2000/svg">
<path d="M124.674 141.892H97.2304H49.6585V139.069H40.7536V136.101H34.8168V133.132H31.8488V130.164H25.912V124.227H22.944V121.259H19.9752V109.386H17.0072V73.7671H14.0392V64.8621H11.0703V22.4969H14.0392V16.5601H26.722V19.5289H32.658V22.4969H38.5948V25.4648H41.5628V28.4337H44.5316V31.4017H47.4996V34.3696H49.6585V31.4017H67.4672V28.4337H82.3089V25.4648H94.9917V28.4337H106.865V31.4017H124.674V34.3696H126.833V31.4017H129.801V28.4337H132.769V25.4648H135.738V22.4969H141.674V19.5289H147.611V16.5601H160.293V22.4969H163.261V64.8621H160.293V73.7671H157.325V109.386H154.357V121.259H151.389V124.227H148.421V130.164H142.484V133.132H139.516V136.101H133.579V139.069H124.674V141.892ZM97.2304 138.339H120.976V135.371H129.881V132.403H135.818V129.434H138.786V126.466H144.723V120.529H147.691V117.561H150.659V105.688H153.627V70.069H156.595V61.164H159.563V26.195H156.595V20.2582H151.309V23.227H145.372C145.372 24.1894 145.384 25.1602 145.384 26.1164C143.383 26.1799 141.389 26.195 139.436 26.195V29.163H136.467C136.467 29.3893 136.452 31.9578 136.432 31.9891L133.499 32.1318V34.2807C133.489 34.3592 133.483 34.4395 133.481 34.5216C133.481 34.7807 133.471 35.0535 133.473 35.3278C133.402 35.613 133.38 35.9261 133.421 36.2586H137.627V33.2906H140.595H143.563V27.3538H146.532H152.468V57.0363H146.532H143.563V51.1003H140.595V45.1635H131.69V38.1407C128.143 38.1213 124.592 38.0677 120.976 38.0677V35.0998H103.166V32.1318H91.2936V29.163H86.007V32.1318H71.1653V35.0998H53.3566V38.0677C49.7954 38.0677 46.2192 38.1254 42.6426 38.1427V45.1635H33.7378V51.1003H30.769V57.0363H27.801H21.8642V27.3538H27.801H30.769V33.2906H33.7378H36.7058V36.2586H41.1238C41.0359 36.1903 40.9427 36.13 40.8452 36.0775C40.8422 34.7587 40.8335 33.4639 40.8335 32.1318L37.8744 32.1133C37.8522 31.5089 37.8647 29.6075 37.8647 29.163L34.9401 29.1771C34.915 29.1261 34.8967 26.4184 34.8967 26.195C33.8312 26.195 30.1604 26.2169 28.9874 26.1835C28.9113 25.0435 28.9599 24.3126 28.9599 23.227H23.0239V20.2582H17.7374V26.195H14.7684V61.164H17.7374V70.069H20.7053V105.688H23.6733V117.561H26.6421V120.529H29.6101V126.466H35.5469V129.434H38.5149V132.403H44.4517V135.371H53.3566V138.339H97.2304ZM63.4485 92.3242H60.4067H51.5019V89.7097H60.4067V89.6876H51.5475V62.9731H60.4514V62.9952H63.4485V89.7097V92.3242ZM125.827 92.3021H122.785H113.88V89.6876V62.9731H122.785H125.827V89.6876V92.3021ZM93.1027 95.6244V92.6556H90.1347H87.1659V95.6244H84.1979V92.6556H81.2299V95.6244V101.56H84.1979V104.529H90.1347V101.56H93.1027V95.6244Z" fill="#56B3C6"/>
<path fill-rule="evenodd" clip-rule="evenodd" d="M137.108 137.805H140.572V141.269H137.108V137.805ZM147.5 151.79V148.326H151.092V134.341H133.644V151.79H147.5Z" fill="#BAF3FE"/>
<path fill-rule="evenodd" clip-rule="evenodd" d="M116.196 162.182V127.285H123.124V123.821H112.603V162.182H116.196Z" fill="white"/>
<path fill-rule="evenodd" clip-rule="evenodd" d="M133.644 148.326V134.341H130.052V148.326H133.644Z" fill="white"/>
<path fill-rule="evenodd" clip-rule="evenodd" d="M147.5 134.341V130.749H133.644V134.341H147.5Z" fill="white"/>
<path fill-rule="evenodd" clip-rule="evenodd" d="M130.052 148.326V134.341H126.588V148.326H130.052Z" fill="#56B3C6"/>
<path fill-rule="evenodd" clip-rule="evenodd" d="M151.092 134.341V148.326H154.556V134.341H151.092Z" fill="#56B3C6"/>
<path fill-rule="evenodd" clip-rule="evenodd" d="M147.5 130.749V127.285H133.644V130.749H147.5Z" fill="#56B3C6"/>
<path fill-rule="evenodd" clip-rule="evenodd" d="M147.5 151.79H133.644V155.254H147.5V151.79Z" fill="#56B3C6"/>
<path fill-rule="evenodd" clip-rule="evenodd" d="M133.644 134.341V130.749H130.052V134.341H133.644Z" fill="#56B3C6"/>
<path fill-rule="evenodd" clip-rule="evenodd" d="M151.092 134.341V130.749H147.5V134.341H151.092Z" fill="#56B3C6"/>
<path fill-rule="evenodd" clip-rule="evenodd" d="M133.644 151.79V148.326H130.052V151.79H133.644Z" fill="#56B3C6"/>
<path fill-rule="evenodd" clip-rule="evenodd" d="M151.092 148.326H147.5V151.79H151.092V148.326Z" fill="#56B3C6"/>
<path fill-rule="evenodd" clip-rule="evenodd" d="M137.108 141.269H140.572V137.805H137.108V141.269Z" fill="white"/>
<path d="M123.16 123.857H112.64V127.308H123.16V123.857Z" fill="#56B3C6"/>
<path d="M116.274 127.236H112.64V165.589H116.274V127.236Z" fill="#56B3C6"/>
<path fill-rule="evenodd" clip-rule="evenodd" d="M171.91 162.141H116.237V165.605H171.91V162.141Z" fill="#56B3C6"/>
<path fill-rule="evenodd" clip-rule="evenodd" d="M168.454 120.991V162.167H171.918V120.991H168.454Z" fill="#56B3C6"/>
<path fill-rule="evenodd" clip-rule="evenodd" d="M171.918 123.908V120.35H158.021V123.908H171.918Z" fill="#56B3C6"/>
<path fill-rule="evenodd" clip-rule="evenodd" d="M161.306 120.427V116.869H154.357V120.427H161.306Z" fill="#56B3C6"/>
<path d="M126.586 120.449H119.561V123.9H126.586V120.449Z" fill="#56B3C6"/>
<path d="M130.119 117.033H123.094V120.484H130.119V117.033Z" fill="#56B3C6"/>
<path d="M157.831 113.661H126.541V117.112H157.831V113.661Z" fill="#56B3C6"/>
<path fill-rule="evenodd" clip-rule="evenodd" d="M154.557 148.326H151.093V151.79H147.5V155.254H133.644V151.79H130.052V148.326H126.588V134.341H130.052V130.749H133.644V127.285H147.5V130.749H151.093V134.341H154.557V148.326ZM154.357 117.112H130.119V120.484H126.586V123.901H123.16V127.308H116.274V162.141H168.454V123.908H158.021V120.427H154.357V117.112Z" fill="#FEFEFE"/>
</svg>
