<svg width="20" height="20" viewBox="0 0 20 20" fill="none" xmlns="http://www.w3.org/2000/svg"><path fill-rule="evenodd" clip-rule="evenodd" d="M11.4916 12.9177C11.735 12.6385 11.903 12.5025 12.1251 12.2243C13.0195 11.1038 12.759 11.3487 14.878 12.4258C15.5356 12.76 16.0876 12.8798 15.4654 14.289C15.236 14.8087 14.4791 15.3649 13.7648 15.5426C12.7923 15.7846 12.2029 15.6095 11.3468 15.2745C8.99316 14.3534 8.12192 13.7056 6.55835 11.9052C6.07059 11.3436 5.45885 10.3749 5.04116 9.71222C4.19877 8.37564 3.94926 6.47875 4.92558 5.23019C5.11173 4.99211 5.44217 4.62859 5.69713 4.51197C5.95359 4.39467 6.71917 4.39562 6.99687 4.50703C7.35787 4.65187 7.73599 6.09284 7.9143 6.57088C8.04732 6.92754 8.29635 7.33704 8.11152 7.73781C7.63311 8.77521 6.83996 8.54039 7.39374 9.51769C7.93456 10.4721 8.5983 11.2293 9.45291 11.9112C9.77393 12.1674 10.9332 12.9512 11.4916 12.9177ZM1.37459 18.8789C2.22096 18.8155 4.2035 18.2536 4.56003 18.4238C4.82056 18.5481 5.09792 18.737 5.38583 18.8879C6.60673 19.528 7.8669 19.8836 9.38284 19.9802C13.191 20.2227 16.1695 18.2061 17.915 15.7865C19.0767 14.1762 19.7385 12.1476 19.7473 10.0252C19.7781 2.53228 11.8573 -2.25851 5.43138 1.0819C1.85557 2.94073 -0.314919 6.71852 0.0372647 10.8716C0.178597 12.5383 0.799731 14.2838 1.67598 15.5712C1.96687 15.9986 1.82516 16.059 1.73789 16.6251C1.62177 17.3783 1.47973 18.1262 1.37459 18.8789Z" fill="#56B3C6"/></svg>