<svg width="20" height="20" viewBox="0 0 20 20" fill="none" xmlns="http://www.w3.org/2000/svg"><g clip-path="url(#clip0_432_56)"><path fill-rule="evenodd" clip-rule="evenodd" d="M2.7201 6.91092C2.87935 6.97269 7.52596 10.6325 7.92766 10.9376C8.21522 11.156 8.48933 11.3922 8.77952 11.6062C9.26735 11.966 9.96791 12.6982 10.9104 11.9103C11.6568 11.2862 12.7278 10.4877 13.5155 9.87312L15.2449 8.52204C15.5772 8.27797 16.7944 7.28044 16.9995 7.17438C17.0272 8.40988 17.0023 9.67448 17.0023 10.9132C17.0023 11.5176 17.1096 14.2718 16.9143 14.5919C16.6511 15.0232 15.9491 14.8982 15.3558 14.8982L4.1092 14.8982C2.46888 14.8981 2.72106 14.8506 2.72106 12.5542L2.7201 6.91092ZM16.787 6.05631C16.7392 6.22945 16.0474 6.69729 15.8131 6.88784C14.3469 8.08052 12.5718 9.39048 11.0656 10.5853C10.8417 10.7629 10.6038 10.9368 10.3918 11.1124C10.0053 11.4325 9.96465 11.3212 9.63109 11.075L4.2338 6.86632C3.83562 6.55548 2.7963 5.97295 3.48022 5.62608C3.66498 5.53236 13.6642 5.58528 15.4759 5.58528C16.0203 5.58528 16.9611 5.42578 16.787 6.05631ZM9.24655 0.175693C7.31313 0.293307 5.32313 1.10406 3.92056 2.23995C2.9857 2.99706 2.21836 3.82106 1.59688 4.83925C0.509118 6.62142 0.0248898 8.57207 0.166004 10.781C0.493475 15.9073 5.13409 20.271 10.756 19.836C15.9783 19.4318 20.1977 14.9818 19.8345 9.23191C19.7522 7.92789 19.2765 6.38915 18.7322 5.41532C18.0177 4.13682 17.3747 3.35386 16.4211 2.52288C16.3484 2.45949 16.3321 2.43319 16.2531 2.37186C16.1342 2.27955 16.0502 2.21355 15.9147 2.10939C14.028 0.658879 11.7035 0.0262074 9.24655 0.175693Z" fill="#56B3C6"/></g><defs><clipPath id="clip0_432_56"><rect width="20" height="20" fill="white"/></clipPath></defs></svg>