<svg width="207" height="219" viewBox="0 0 207 219" fill="none" xmlns="http://www.w3.org/2000/svg">
<g clip-path="url(#clip0_169_19)">
<path fill-rule="evenodd" clip-rule="evenodd" d="M104.376 119.865V117.067H107.178V108.847H96.1449V117.067H98.9468V119.865H104.376ZM149.334 52.8431V55.6404H140.928V63.9585H152.136V69.5545H154.938V75.1493H163.268V47.2473H154.938V52.8431H149.334ZM48.385 75.1493V69.5545H51.1874V63.9585H62.3953V55.6404H53.9893V52.8431H48.385V47.2473H40.0542V75.1493H48.385ZM135.323 55.5653H140.852V52.7677H143.654V49.9703H146.456V47.1719H149.259V44.3745H154.862V41.5769H160.467V38.7787H168.948V44.3745H171.75V80.8204H168.948V89.2141H166.146V122.787H163.344V133.978H160.542V136.775H157.74V142.371H152.136V145.169H149.334V147.967H143.73V150.765H135.323V153.562H112.908V156.285H118.511V161.88H121.314V167.476H124.116V173.072H126.917V212.315H124.116V217.911H115.634V212.315H87.6892V217.911H79.2077V212.315H76.4051V173.072H79.2077V167.476H82.0094V161.88H84.8113V156.285H90.4156V153.562H67.9998V150.765H59.5936V147.967H53.9893V145.169H51.1874V142.371H45.5831V136.775H42.7814V133.978H39.9787V122.787H37.1771V89.2141H34.3752V80.8204H31.5725V44.3745H34.3752V38.7787H42.8566V41.5769H48.4602V44.3745H54.0645V47.1719H56.8664V49.9703H59.6689V52.7677H62.4708V55.5653H67.9998V52.7677H84.8113V49.9703H98.8218V47.1719H107.303V49.9703H118.511V52.7677H135.323V55.5653Z" fill="#383838"/>
<path fill-rule="evenodd" clip-rule="evenodd" d="M45.6207 75.187V69.5919H48.4223V63.9962H59.6312V55.6027H51.225V52.8054H45.6207V47.2096H40.0164V75.187H45.6207Z" fill="#FC9B9D"/>
<path fill-rule="evenodd" clip-rule="evenodd" d="M152.098 52.8054V55.6027H143.692V63.9962H154.9V69.5919H157.702V75.187H163.306V47.2096H157.702V52.8054H152.098Z" fill="#FC9B9D"/>
<path fill-rule="evenodd" clip-rule="evenodd" d="M96.0576 111.559V117.154H107.265V111.559H104.464V108.76H101.661V111.559H96.0576Z" fill="#FC9B9D"/>
<path fill-rule="evenodd" clip-rule="evenodd" d="M62.433 55.6028H59.6313V63.9962H62.433V55.6028Z" fill="#5B3839"/>
<path fill-rule="evenodd" clip-rule="evenodd" d="M143.692 63.9962V55.6028H140.89V63.9962H143.692Z" fill="#5B3839"/>
<path fill-rule="evenodd" clip-rule="evenodd" d="M157.702 47.2096H154.9V52.8054H157.702V47.2096Z" fill="#AC696B"/>
<path fill-rule="evenodd" clip-rule="evenodd" d="M51.225 63.9962H48.4224V69.5919H51.225V63.9962Z" fill="#AC696B"/>
<path fill-rule="evenodd" clip-rule="evenodd" d="M104.464 117.154H98.8594V119.952H104.464V117.154Z" fill="#AC696B"/>
<path fill-rule="evenodd" clip-rule="evenodd" d="M157.702 75.187V69.592H154.9V75.187H157.702Z" fill="#AC696B"/>
<path fill-rule="evenodd" clip-rule="evenodd" d="M48.4225 52.8054V47.2096H45.6208V52.8054H48.4225Z" fill="#AC696B"/>
<path fill-rule="evenodd" clip-rule="evenodd" d="M154.9 69.5919V63.9962H152.098V69.5919H154.9Z" fill="#AC696B"/>
<path fill-rule="evenodd" clip-rule="evenodd" d="M48.4225 69.592H45.6208V75.187H48.4225V69.592Z" fill="#AC696B"/>
<path fill-rule="evenodd" clip-rule="evenodd" d="M98.8593 111.559V108.76H96.0576V111.559H98.8593Z" fill="#8B5556"/>
<path fill-rule="evenodd" clip-rule="evenodd" d="M101.661 108.76H98.8594V111.559H101.661V108.76Z" fill="white"/>
<path fill-rule="evenodd" clip-rule="evenodd" d="M107.266 111.559V108.76H104.464V111.559H107.266Z" fill="#8B5556"/>
<path fill-rule="evenodd" clip-rule="evenodd" d="M54.0268 55.6028V52.8054H51.2251V55.6028H54.0268Z" fill="#8B5556"/>
<path fill-rule="evenodd" clip-rule="evenodd" d="M152.098 52.8054H149.296V55.6028H152.098V52.8054Z" fill="#8B5556"/>
<path fill-rule="evenodd" clip-rule="evenodd" d="M126.88 105.963H135.286V80.7827H126.88V105.963Z" fill="#9CEDFD"/>
<path fill-rule="evenodd" clip-rule="evenodd" d="M68.0374 105.963H76.4428V80.7827H68.0374V105.963Z" fill="#9CEDFD"/>
<path fill-rule="evenodd" clip-rule="evenodd" d="M138.157 108.427H135.286H126.88V105.963H135.286V80.7827H138.157V105.963V108.427Z" fill="#434242"/>
<path fill-rule="evenodd" clip-rule="evenodd" d="M79.2719 108.448H76.4004H67.9944V105.984H76.4004V80.8036H79.2719V105.984V108.448Z" fill="#434242"/>
<path d="M90.0791 192.711H108.668V188.059H90.0791V192.711Z" fill="#ED2E38"/>
<path d="M108.668 188.059H113.279V183.454H108.668V188.059Z" fill="#ED2E38"/>
<path d="M94.7383 174.15H113.279V169.546H94.7383V174.15Z" fill="#ED2E38"/>
<path d="M90.0791 178.802H94.7382V174.15H90.0791V178.802Z" fill="#ED2E38"/>
<path d="M94.7383 183.454H108.668V178.802H94.7383V183.454Z" fill="#ED2E38"/>
<path d="M70.9848 18.8001H65.1943V30.3635H70.9848V18.8001Z" fill="#ED2E38"/>
<path d="M70.9848 1.45483H65.1943V13.0182H70.9848V1.45483Z" fill="#ED2E38"/>
<path d="M70.9851 13.0183L70.9851 18.8L82.5662 18.8L82.5662 13.0183L70.9851 13.0183Z" fill="#ED2E38"/>
<path d="M53.6133 13.0183L53.6133 18.8L65.1944 18.8L65.1944 13.0183L53.6133 13.0183Z" fill="#ED2E38"/>
<path d="M174.827 186.122H169.036V197.685H174.827V186.122Z" fill="#ED2E38"/>
<path d="M174.827 168.776H169.036V180.34H174.827V168.776Z" fill="#ED2E38"/>
<path d="M174.827 180.34L174.827 186.122L186.408 186.122L186.408 180.34L174.827 180.34Z" fill="#ED2E38"/>
<path d="M157.456 180.34L157.456 186.122L169.037 186.122L169.037 180.34L157.456 180.34Z" fill="#ED2E38"/>
<path d="M198.801 142.21H193.011V147.991H198.801V142.21Z" fill="#ED2E38"/>
<path d="M198.801 127.756H193.011V133.537H198.801V127.756Z" fill="#ED2E38"/>
<path d="M200.249 134.983L200.249 140.764L206.04 140.764L206.04 134.983L200.249 134.983Z" fill="#ED2E38"/>
<path d="M185.773 134.983L185.773 140.764L191.563 140.764L191.563 134.983L185.773 134.983Z" fill="#ED2E38"/>
<path d="M129.443 34.7341H123.653V40.5157H129.443V34.7341Z" fill="#ED2E38"/>
<path d="M129.443 20.2797H123.653V26.0613H129.443V20.2797Z" fill="#ED2E38"/>
<path d="M130.891 27.507L130.891 33.2887L136.681 33.2887L136.681 27.507L130.891 27.507Z" fill="#ED2E38"/>
<path d="M116.414 27.507L116.414 33.2887L122.205 33.2887L122.205 27.507L116.414 27.507Z" fill="#ED2E38"/>
<path d="M38.3611 186.122H32.5706V197.685H38.3611V186.122Z" fill="#ED2E38"/>
<path d="M38.3611 168.776H32.5706V180.34H38.3611V168.776Z" fill="#ED2E38"/>
<path d="M38.3611 180.34L38.3611 186.122L49.9422 186.122L49.9422 180.34L38.3611 180.34Z" fill="#ED2E38"/>
<path d="M20.9895 180.34L20.9895 186.122L32.5706 186.122L32.5706 180.34L20.9895 180.34Z" fill="#ED2E38"/>
<path d="M13.5471 144.012H7.75659V149.794H13.5471V144.012Z" fill="#ED2E38"/>
<path d="M13.5471 129.558H7.75659V135.34H13.5471V129.558Z" fill="#ED2E38"/>
<path d="M14.9946 136.785L14.9946 142.567L20.7852 142.567L20.7852 136.785L14.9946 136.785Z" fill="#ED2E38"/>
<path d="M0.518311 136.785L0.518311 142.567L6.30888 142.567L6.30888 136.785L0.518311 136.785Z" fill="#ED2E38"/>
</g>
<defs>
<clipPath id="clip0_169_19">
<rect width="206.585" height="219.003" fill="white"/>
</clipPath>
</defs>
</svg>
