<svg width="152" height="120" viewBox="0 0 152 120" fill="none" xmlns="http://www.w3.org/2000/svg">
<g clip-path="url(#clip0_174_460)">
<path d="M52.3059 12.8135H48.0676V19.5755H52.3059V12.8135Z" fill="#FEFEFE"/>
<path d="M52.3059 2.67047H48.0676V9.43247H52.3059V2.67047Z" fill="#FEFEFE"/>
<path d="M52.3059 9.43248L52.3059 12.8135L60.7825 12.8135L60.7825 9.43248L52.3059 9.43248Z" fill="#FEFEFE"/>
<path d="M39.5911 9.43248L39.5911 12.8135L48.0677 12.8135L48.0677 9.43248L39.5911 9.43248Z" fill="#FEFEFE"/>
<path d="M128.312 110.659H124.073V117.421H128.312V110.659Z" fill="#FEFEFE"/>
<path d="M128.312 100.516H124.073V107.278H128.312V100.516Z" fill="#FEFEFE"/>
<path d="M128.312 107.278L128.312 110.659L136.788 110.659L136.788 107.278L128.312 107.278Z" fill="#FEFEFE"/>
<path d="M115.596 107.278L115.596 110.659L124.073 110.659L124.073 107.278L115.596 107.278Z" fill="#FEFEFE"/>
<path d="M145.859 84.9802H141.621V88.3612H145.859V84.9802Z" fill="#FEFEFE"/>
<path d="M145.859 76.5277H141.621V79.9087H145.859V76.5277Z" fill="#FEFEFE"/>
<path d="M146.919 80.754L146.919 84.135L151.157 84.135L151.157 80.754L146.919 80.754Z" fill="#FEFEFE"/>
<path d="M136.323 80.754L136.323 84.135L140.561 84.135L140.561 80.754L136.323 80.754Z" fill="#FEFEFE"/>
<path d="M95.0935 22.1312H90.8552V25.5122H95.0935V22.1312Z" fill="#FEFEFE"/>
<path d="M95.0935 13.6788H90.8552V17.0598H95.0935V13.6788Z" fill="#FEFEFE"/>
<path d="M96.1531 17.905L96.1531 21.2859L100.391 21.2859L100.391 17.905L96.1531 17.905Z" fill="#FEFEFE"/>
<path d="M85.5574 17.905L85.5574 21.2859L89.7957 21.2859L89.7957 17.905L85.5574 17.905Z" fill="#FEFEFE"/>
<path d="M28.4275 110.659H24.1892V117.421H28.4275V110.659Z" fill="#FEFEFE"/>
<path d="M28.4275 100.516H24.1892V107.278H28.4275V100.516Z" fill="#FEFEFE"/>
<path d="M28.4275 107.278L28.4275 110.659L36.9041 110.659L36.9041 107.278L28.4275 107.278Z" fill="#FEFEFE"/>
<path d="M15.7126 107.278L15.7126 110.659L24.1893 110.659L24.1893 107.278L15.7126 107.278Z" fill="#FEFEFE"/>
<path d="M10.2652 86.0344H6.02686V89.4154H10.2652V86.0344Z" fill="#FEFEFE"/>
<path d="M10.2652 77.5818H6.02686V80.9628H10.2652V77.5818Z" fill="#FEFEFE"/>
<path d="M11.3247 81.8081L11.3247 85.1891L15.563 85.1891L15.563 81.8081L11.3247 81.8081Z" fill="#FEFEFE"/>
<path d="M0.729004 81.8081L0.729004 85.1891L4.9673 85.1891L4.9673 81.8081L0.729004 81.8081Z" fill="#FEFEFE"/>
<path fill-rule="evenodd" clip-rule="evenodd" d="M73.7474 66.5119C73.7474 72.1328 72.8695 76.1916 71.0178 80.6114C70.6276 81.543 70.1496 82.4701 69.6466 83.4067L68.4737 85.3519C66.8958 87.66 67.0074 87.4405 65.2607 89.5589C64.3182 90.7019 61.9368 92.8613 60.7933 93.7735C59.3179 94.9505 57.0968 96.2717 55.4325 97.2755C53.9572 98.1652 41.6088 103.978 42.667 105.379C43.371 106.312 52.4116 102.315 53.7772 101.766C54.3637 101.53 57.7482 100.074 58.2542 99.8146C61.6522 98.0706 63.0166 96.8725 65.7589 94.7098L69.306 91.2014C69.8808 90.5075 70.3509 89.9704 70.8691 89.2794C72.1856 87.5238 75.5275 82.3166 75.7338 80.3401H76.0948C76.1473 82.2178 79.5921 87.5452 80.8459 89.226C81.8402 90.559 82.9362 91.7496 84.1161 92.9552C84.8007 93.6547 85.2243 94.0217 85.9845 94.6337C86.8969 95.368 86.4666 95.3412 87.9362 96.2458C88.7393 96.74 89.2095 97.2856 89.997 97.7707C92.2795 99.1766 108.444 106.614 109.681 104.395C110.412 103.084 103.912 101.322 102.64 100.649L96.8878 97.6034C92.4686 94.9854 89.3174 93.0169 86.062 89.0982C81.2457 83.3008 78.0812 76.2074 78.0812 68.8166C78.0812 63.8075 78.4518 67.8596 80.7639 62.8903C82.852 58.4024 83.7532 52.3306 88.4147 48.5393C93.6028 44.3197 101.916 41.7926 101.916 38.7114C101.916 34.7578 98.5586 32.8056 93.7905 32.8056C87.6125 32.8056 80.314 35.0797 76.0796 35.2517C72.0906 35.4137 60.1801 31.5211 54.2668 33.2543C52.8985 33.6553 52.4513 33.9955 51.4869 34.7819C50.0793 35.9296 49.1202 38.6087 50.4805 40.2749C51.8424 41.9428 56.9134 44.3555 59.7153 46.0159C60.2737 46.3469 60.4799 46.5336 61.004 46.8605C67.2045 50.7256 68.329 55.9286 70.4313 61.6669C70.8297 62.7538 71.7641 64.6758 72.7044 65.4713C73.0259 65.7432 73.7474 66.0911 73.7474 66.5119Z" fill="#FEFEFE"/>
<path d="M105.744 62.4823C107.405 62.4823 108.752 61.4078 108.752 60.0823C108.752 58.7568 107.405 57.6823 105.744 57.6823C104.082 57.6823 102.735 58.7568 102.735 60.0823C102.735 61.4078 104.082 62.4823 105.744 62.4823Z" fill="#FEFEFE"/>
<path d="M93.7012 74.4766C95.3628 74.4766 96.7097 73.4021 96.7097 72.0766C96.7097 70.7511 95.3628 69.6766 93.7012 69.6766C92.0396 69.6766 90.6926 70.7511 90.6926 72.0766C90.6926 73.4021 92.0396 74.4766 93.7012 74.4766Z" fill="#FEFEFE"/>
<path d="M109.203 83.9846C110.864 83.9846 112.211 82.9101 112.211 81.5846C112.211 80.2591 110.864 79.1846 109.203 79.1846C107.541 79.1846 106.194 80.2591 106.194 81.5846C106.194 82.9101 107.541 83.9846 109.203 83.9846Z" fill="#FEFEFE"/>
<path d="M46.7993 62.4823C48.4609 62.4823 49.8079 61.4078 49.8079 60.0823C49.8079 58.7568 48.4609 57.6823 46.7993 57.6823C45.1377 57.6823 43.7908 58.7568 43.7908 60.0823C43.7908 61.4078 45.1377 62.4823 46.7993 62.4823Z" fill="#FEFEFE"/>
<path d="M58.8418 74.4766C60.5034 74.4766 61.8504 73.4021 61.8504 72.0766C61.8504 70.7511 60.5034 69.6766 58.8418 69.6766C57.1802 69.6766 55.8333 70.7511 55.8333 72.0766C55.8333 73.4021 57.1802 74.4766 58.8418 74.4766Z" fill="#FEFEFE"/>
<path d="M43.3401 83.9846C45.0017 83.9846 46.3487 82.9101 46.3487 81.5846C46.3487 80.2591 45.0017 79.1846 43.3401 79.1846C41.6785 79.1846 40.3315 80.2591 40.3315 81.5846C40.3315 82.9101 41.6785 83.9846 43.3401 83.9846Z" fill="#FEFEFE"/>
</g>
<defs>
<clipPath id="clip0_174_460">
<rect width="150.428" height="120" fill="white" transform="translate(0.786133)"/>
</clipPath>
</defs>
</svg>
