<svg width="132" height="120" viewBox="0 0 132 120" fill="none" xmlns="http://www.w3.org/2000/svg"><g clip-path="url(#clip0_174_398)"><path d="M45.4333 12.8135H41.7544V19.5755H45.4333V12.8135Z" fill="#FEFEFE"/><path d="M45.4333 2.67047H41.7544V9.43247H45.4333V2.67047Z" fill="#FEFEFE"/><path d="M45.4333 9.43248L45.4333 12.8135L52.7911 12.8135L52.7911 9.43248L45.4333 9.43248Z" fill="#FEFEFE"/><path d="M34.3967 9.43248L34.3967 12.8135L41.7545 12.8135L41.7545 9.43248L34.3967 9.43248Z" fill="#FEFEFE"/><path d="M111.407 110.659H107.728V117.421H111.407V110.659Z" fill="#FEFEFE"/><path d="M111.407 100.516H107.728V107.278H111.407V100.516Z" fill="#FEFEFE"/><path d="M111.407 107.278L111.407 110.659L118.765 110.659L118.765 107.278L111.407 107.278Z" fill="#FEFEFE"/><path d="M100.37 107.278L100.37 110.659L107.728 110.659L107.728 107.278L100.37 107.278Z" fill="#FEFEFE"/><path d="M126.638 84.9802H122.959V88.3612H126.638V84.9802Z" fill="#FEFEFE"/><path d="M126.638 76.5277H122.959V79.9087H126.638V76.5277Z" fill="#FEFEFE"/><path d="M127.558 80.754L127.558 84.135L131.237 84.135L131.237 80.754L127.558 80.754Z" fill="#FEFEFE"/><path d="M118.361 80.754L118.361 84.135L122.04 84.135L122.04 80.754L118.361 80.754Z" fill="#FEFEFE"/><path d="M82.5732 22.1312H78.8943V25.5122H82.5732V22.1312Z" fill="#FEFEFE"/><path d="M82.5732 13.6788H78.8943V17.0598H82.5732V13.6788Z" fill="#FEFEFE"/><path d="M83.4929 17.905L83.4929 21.2859L87.1718 21.2859L87.1718 17.905L83.4929 17.905Z" fill="#FEFEFE"/><path d="M74.2957 17.905L74.2957 21.2859L77.9745 21.2859L77.9745 17.905L74.2957 17.905Z" fill="#FEFEFE"/><path d="M24.7065 110.659H21.0276V117.421H24.7065V110.659Z" fill="#FEFEFE"/><path d="M24.7065 100.516H21.0276V107.278H24.7065V100.516Z" fill="#FEFEFE"/><path d="M24.7065 107.278L24.7065 110.659L32.0643 110.659L32.0643 107.278L24.7065 107.278Z" fill="#FEFEFE"/><path d="M13.6699 107.278L13.6699 110.659L21.0277 110.659L21.0277 107.278L13.6699 107.278Z" fill="#FEFEFE"/><path d="M8.94158 86.0344H5.2627V89.4154H8.94158V86.0344Z" fill="#FEFEFE"/><path d="M8.94158 77.5818H5.2627V80.9628H8.94158V77.5818Z" fill="#FEFEFE"/><path d="M9.86133 81.8081L9.86133 85.1891L13.5402 85.1891L13.5402 81.8081L9.86133 81.8081Z" fill="#FEFEFE"/><path d="M0.664063 81.8081L0.664062 85.1891L4.34294 85.1891L4.34294 81.8081L0.664063 81.8081Z" fill="#FEFEFE"/><path fill-rule="evenodd" clip-rule="evenodd" d="M50.6111 72.053L52.3675 70.502C52.5903 70.2977 52.6352 70.1808 52.8567 70.0445C53.6 69.5867 54.213 69.0103 54.9368 68.5139L56.5399 67.4696C56.7143 67.3684 56.8399 67.3615 57.0144 67.2625C58.0259 66.6878 59.9533 65.5916 61.0511 65.3497C61.2668 65.3021 61.3323 65.2735 61.5545 65.187C62.9051 64.6613 65.4086 64.1346 66.8218 64.4258C67.2211 64.5081 67.6733 64.4795 68.0561 64.567C68.7554 64.7268 69.5169 64.8778 70.1364 65.1038C70.3063 65.1657 70.4294 65.2128 70.6224 65.2803L71.1359 65.4428C71.8712 65.6772 73.2355 66.317 73.8995 66.7007L74.7683 67.1625C75.1222 67.3706 75.2588 67.381 75.6073 67.6544C75.9936 67.9576 76.5458 68.1996 76.9579 68.5177C77.0062 68.555 77.1282 68.6593 77.1609 68.6831L78.285 69.5457C78.4043 69.6407 78.2871 69.5539 78.4618 69.6615L78.5561 69.7168C79.1484 70.0981 79.6028 70.5223 80.1287 71.0133C80.599 71.4521 81.1019 71.8397 81.5158 72.2646L82.7498 73.5833C83.1442 73.9453 83.3082 74.2718 83.6524 74.6534C88.6654 79.9998 94.8349 88.4083 90.0158 95.4727C86.0562 101.277 79.2207 98.9505 73.846 96.8201C66.3722 93.8579 63.4845 94.5026 56.2248 97.5699C49.6412 100.269 43.1522 99.8408 40.8149 92.6107C38.8379 86.4955 43.442 81.2907 46.7713 76.449C47.7793 74.983 49.3926 73.3813 50.6111 72.053ZM25.55 63.7613C25.702 64.6855 25.7067 65.0638 26.0265 65.9504C26.5644 67.4418 26.2866 67.2401 27.1107 68.5228L27.1812 68.637C27.7082 69.567 27.48 69.5484 28.2693 70.4873L29.1437 71.6924C29.379 72.0204 29.1551 71.7992 29.4509 72.0576L30.8408 73.4336C31.5403 74.091 31.9774 74.2457 32.4329 74.6185C33.0114 75.092 32.7694 74.938 33.4465 75.2544C33.4666 75.2638 33.4931 75.275 33.5128 75.2846C34.6046 75.8124 33.7373 75.6502 35.7288 76.2527C38.0784 76.9856 40.06 77.2961 42.2448 76.2359C43.07 75.8356 42.7005 76.0724 43.501 75.5246C44.1344 75.0967 44.6572 74.6722 44.927 74.2709C45.5125 73.3999 45.8013 73.0206 46.2066 71.9804C47.0031 69.9361 46.8894 67.0472 46.2189 64.8577C45.8909 63.787 45.1198 62.0416 44.5371 61.1099C44.1163 60.4373 43.3053 59.5452 43.0944 59.1552L42.0775 58.0673C41.4761 57.4921 41.3881 57.229 40.6258 56.7554C39.9546 56.3386 39.549 55.8208 38.536 55.3824C37.4287 54.9032 37.5807 54.8337 36.0478 54.3698C35.8432 54.3079 36.0168 54.3577 35.8283 54.2983C35.7271 54.2664 35.6437 54.242 35.5259 54.208C34.1671 53.8147 31.8939 53.7599 30.4298 54.3572C30.1891 54.4554 30.1078 54.4894 29.8953 54.5912C29.6897 54.69 29.6743 54.7067 29.449 54.8233L29.1291 54.981C29.1094 54.991 29.0838 55.0034 29.0642 55.0136C29.0445 55.0237 29.0192 55.0368 28.9997 55.0472C28.5096 55.3097 27.0901 56.5792 26.8297 57.0899C26.7481 57.25 26.7056 57.399 26.6335 57.5521L25.9567 58.9476C25.416 60.4771 25.2989 62.234 25.55 63.7613ZM42.3752 48.8281C42.5361 49.6632 42.6823 50.4695 42.8459 51.3136L44.1447 54.676C44.6063 55.4243 45.1063 56.4944 45.6245 56.9998L47.031 58.7419L49.1359 60.595C50.8589 61.7903 50.9438 61.4967 52.208 62.1943C52.5889 62.4046 53.0617 62.3856 53.5685 62.5124C54.7689 62.8128 56.6007 62.708 57.726 62.3785C58.2174 62.2346 58.4602 62.0993 58.8968 61.8905C60.8051 60.9776 60.0222 61.2091 60.8181 60.7105C61.2651 60.4304 60.9326 60.788 61.4395 60.1676L62.1529 59.345C63.4311 57.8416 63.7925 56.6743 64.3251 54.8833C64.8253 53.2016 64.9395 50.2667 64.5846 48.6244L64.1671 46.8016C63.9559 45.5477 63.0749 43.5631 62.4049 42.4048C62.3399 42.2923 62.3471 42.2976 62.2551 42.1748L61.1125 40.552C60.5117 39.9325 60.756 39.8543 59.7021 38.9047L57.0393 36.8287C56.6135 36.5994 56.5199 36.5178 56.001 36.3076C54.8864 35.8561 55.6221 35.8206 53.5326 35.5045C53.0075 35.4251 53.4805 35.3524 52.109 35.325C50.2224 35.2873 50.9365 35.349 49.887 35.5115C48.1543 35.7797 48.9489 35.7762 48.0248 36.114C46.9906 36.492 46.8006 36.7735 46.1138 37.3301C45.9487 37.4638 45.9945 37.4095 45.8897 37.4902C45.7496 37.5978 45.8082 37.547 45.6873 37.6699C45.0538 38.3132 44.3574 39.0721 43.9498 39.8556C43.8603 40.0276 43.8082 40.1556 43.7074 40.3756C43.6509 40.4987 43.5291 40.7526 43.4664 40.8925C43.3123 41.2363 43.1436 41.5627 43.0189 41.948C42.3911 43.8875 41.957 46.6549 42.3752 48.8281ZM89.4408 48.8281C89.28 49.6631 89.1335 50.4694 88.9701 51.3133L87.6714 54.6758C87.2097 55.4242 86.7097 56.4943 86.1915 56.9996L84.7849 58.7418L82.6801 60.5947C80.9571 61.7902 80.8721 61.4966 79.6081 62.1943C79.227 62.4044 78.7544 62.3855 78.2474 62.5123C77.0471 62.8127 75.2151 62.7079 74.09 62.3784C73.5986 62.2345 73.3558 62.099 72.9193 61.8902C71.0108 60.9775 71.7935 61.2089 70.9979 60.7104C70.5508 60.4304 70.8835 60.788 70.3766 60.1674L69.6631 59.3449C68.3849 57.8413 68.0233 56.674 67.4909 54.8832C66.9906 53.2014 66.8764 50.2667 67.2314 48.6242L67.6488 46.8014C67.8602 45.5474 68.741 43.5629 69.4112 42.4048C69.4762 42.2923 69.469 42.2976 69.561 42.1747L70.7036 40.552C71.3041 39.9324 71.0601 39.8543 72.114 38.9046L74.7768 36.8285C75.2025 36.5993 75.2961 36.5176 75.815 36.3076C76.9297 35.856 76.1939 35.8205 78.2835 35.5045C78.8086 35.4251 78.3353 35.3522 79.707 35.3248C81.5937 35.2872 80.8795 35.3489 81.9289 35.5114C83.6616 35.7797 82.8671 35.7762 83.791 36.1139C84.8255 36.4919 85.0155 36.7735 85.7023 37.33C85.8673 37.4636 85.8214 37.4094 85.9263 37.49C86.0663 37.5977 86.0076 37.547 86.1287 37.6697C86.7622 38.3131 87.4584 39.072 87.8663 39.8555C87.9558 40.0274 88.0077 40.1556 88.1085 40.3753C88.1651 40.4986 88.287 40.7525 88.3497 40.8924C88.5037 41.2362 88.6724 41.5625 88.7971 41.948C89.4248 43.8872 89.859 46.6549 89.4408 48.8281ZM105.592 63.5167C105.44 64.4408 105.435 64.8191 105.115 65.7056C104.577 67.1971 104.855 66.9954 104.031 68.278L103.961 68.3924C103.434 69.3223 103.662 69.3037 102.873 70.2425L101.998 71.4478C101.763 71.7758 101.987 71.5544 101.691 71.8129L100.301 73.1888C99.6015 73.8463 99.1644 74.001 98.709 74.3737C98.1304 74.8474 98.3726 74.6933 97.6954 75.0097C97.6751 75.0192 97.6488 75.0303 97.6289 75.04C96.5373 75.5677 97.4043 75.4055 95.4132 76.008C93.0371 76.7494 91.1202 77.0488 88.9144 75.993C87.9029 75.5089 86.871 74.9128 86.2148 74.0262C85.6295 73.1552 85.3407 72.776 84.9354 71.7355C84.1387 69.6914 84.2525 66.8026 84.9231 64.6132C85.251 63.5422 86.022 61.7968 86.6046 60.8652C87.0256 60.1926 87.8366 59.3004 88.0474 58.9105L89.0643 57.8225C89.6657 57.2476 89.7538 56.9843 90.5162 56.5108C91.1873 56.0939 91.5929 55.5762 92.6059 55.1377C93.713 54.6586 93.5611 54.589 95.094 54.1253C95.2988 54.0632 95.1249 54.113 95.3137 54.0535C95.4149 54.0216 95.498 53.9974 95.6159 53.9634C96.9748 53.57 99.2481 53.5151 100.712 54.1127C100.953 54.2107 101.034 54.2447 101.246 54.3467C101.452 54.4453 101.468 54.4621 101.693 54.5785L102.013 54.7363C102.032 54.7463 102.058 54.7588 102.078 54.769C102.097 54.779 102.123 54.7921 102.142 54.8026C102.632 55.065 104.052 56.3345 104.312 56.8452C104.394 57.0054 104.436 57.1542 104.508 57.3076L105.185 58.703C105.726 60.2324 105.843 61.9894 105.592 63.5167ZM20.1274 60.9799V64.5809C20.3717 64.5953 20.3076 65.4897 20.3753 65.7085C20.5982 66.4285 20.8576 68.191 21.2577 69.0324C21.4716 69.4825 21.5776 69.9322 21.7779 70.4585L22.4179 71.6813C22.4498 71.743 22.5347 71.901 22.568 71.9662C23.1335 73.0736 23.9138 74.1618 24.6925 75.1381C25.0566 75.5947 25.147 75.7663 25.5589 76.169C25.7395 76.3458 25.7974 76.4709 25.9954 76.6831L26.9765 77.6055C27.0756 77.6993 27.1114 77.7344 27.2043 77.819L27.3613 77.9577C27.3728 77.9677 27.3894 77.9821 27.4007 77.9921L28.2843 78.7097C28.4565 78.8125 28.468 78.8094 28.5963 78.9259C29.023 79.3136 29.5211 79.5453 29.9819 79.8946L30.1919 80.0488C30.2045 80.057 30.2228 80.0689 30.2361 80.077C31.48 80.7127 32.3133 81.1499 33.5615 81.7406C33.4913 82.8072 32.9682 84.0532 32.7696 85.322C32.0556 89.8824 32.0814 92.2902 33.2935 96.4935C33.8677 98.4852 35.029 100.569 36.4642 102.156C36.9541 102.654 37.5435 103.078 38.0826 103.545C41.6215 106.348 47.9881 106.98 52.3502 106.082C61.4882 104.069 63.017 100.648 73.3122 104.236C74.6455 104.701 75.8522 105.085 77.2223 105.457C83.3751 106.966 91.3196 106.936 95.6278 101.891C100.23 96.5009 100.269 88.9559 98.4359 82.4744C98.1026 81.3472 98.3312 81.662 100.006 80.8009C100.79 80.3976 101.581 80.0024 102.37 79.6053C102.522 79.5171 102.546 79.4956 102.685 79.4075C102.699 79.3987 102.718 79.3873 102.732 79.3788L104.356 78.1321C104.535 77.9646 104.669 77.8357 104.848 77.6777C105.017 77.5291 105.246 77.3498 105.394 77.1903L108.794 72.8755C109.057 72.3933 109.238 72.2179 109.484 71.6792L110.402 69.7374C110.501 69.4812 110.56 69.2617 110.653 69.037C110.872 68.5123 110.934 68.1407 111.095 67.5449L111.456 66.069C111.505 65.7617 111.562 65.4987 111.595 65.2866C111.635 65.0316 111.519 64.5406 111.774 64.4537V61.3567C111.615 61.1656 111.623 60.9235 111.603 60.5959C111.543 59.6328 111.052 57.902 110.649 57.0744L110.055 55.6487C110.047 55.6342 110.036 55.6169 110.028 55.6025L109.921 55.4177C109.913 55.4034 109.904 55.3849 109.896 55.3708C109.887 55.3567 109.878 55.338 109.87 55.3243C109.824 55.2465 109.823 55.2448 109.787 55.1926C109.657 55.0085 109.561 54.8987 109.444 54.6723C109.154 54.1135 108.798 53.789 108.492 53.2902L108.311 53.037C107.477 52.1148 107.201 51.823 106.199 51.0522C106.113 50.9863 106.051 50.9225 105.962 50.8452L104.878 50.0881C104.069 49.5929 103.251 49.1408 102.363 48.7574C101.026 48.1806 99.4742 47.8678 98.0091 47.6459C97.4632 47.5631 96.6489 47.716 96.1916 47.5501C96.0112 47.4247 96.0957 46.9951 96.0637 46.7982C96.0148 46.4981 96.0476 46.8952 95.9745 46.4891C95.8267 45.6683 95.9073 44.6279 95.5402 43.372C95.3984 42.8868 95.2787 42.6174 95.1732 42.1607C94.9874 41.3566 94.5808 40.5964 94.2495 39.8564C94.1761 39.6923 94.0744 39.3602 94.0001 39.2365L93.6886 38.7504C93.4923 38.3677 92.7443 37.1262 92.409 36.7741C92.3302 36.6914 92.2617 36.6336 92.1963 36.5449C91.4805 35.5754 90.5163 34.6312 89.5117 33.8948L87.7952 32.7316C87.7905 32.7288 87.6985 32.6674 87.6607 32.6432L84.6176 31.2968C83.6876 31.0463 82.1694 30.5533 81.2306 30.5208C78.7491 30.4351 78.8507 30.3865 76.3422 30.6548C75.7156 30.7219 74.9895 30.9803 74.3766 31.1437C73.489 31.3806 72.7683 31.6954 71.9382 32.0467L70.2435 32.8859L67.3127 34.9711C67.131 35.1022 67.0271 35.1674 66.8734 35.3408C66.6531 35.5896 66.7277 35.521 66.4691 35.7342C66.3636 35.8214 66.1702 36.0617 65.9505 36.0606C65.7597 36.0596 64.2325 34.6816 64.1011 34.5697L63.9428 34.436C63.9317 34.4264 63.9158 34.4118 63.9044 34.4022L63.6135 34.1791C63.601 34.1696 63.5829 34.1569 63.5705 34.147C63.5584 34.1372 63.5412 34.1237 63.5293 34.1137C63.5175 34.1036 63.5012 34.0886 63.4898 34.0786L63.2154 33.8562C63.2013 33.8479 63.1808 33.8387 63.1663 33.8303C62.8026 33.6197 62.5218 33.44 62.1278 33.2245L61.0709 32.584C60.8871 32.485 60.6964 32.41 60.5228 32.3123C59.9508 31.9903 59.4084 31.7911 58.7659 31.5422L57.8069 31.2289C57.7355 31.2002 57.5579 31.119 57.5571 31.1188C57.4245 31.0756 57.3424 31.0766 57.1853 31.0398L56.1767 30.7771C55.7451 30.6842 55.2221 30.6442 54.7539 30.5473C53.9394 30.3788 52.243 30.4972 51.3633 30.5146C50.865 30.5245 49.1739 30.7018 48.6316 30.8642L48.1389 31.0388C48.1226 31.0453 48.1032 31.0543 48.087 31.0607C48.0205 31.0867 47.8624 31.1408 47.815 31.1537C46.4283 31.5296 46.9156 31.4528 45.9825 31.7857C44.9752 32.1451 44.1185 32.701 43.2362 33.2656C42.2828 33.8755 41.3151 34.7099 40.5844 35.5344C40.4271 35.7121 40.3437 35.7428 40.1929 35.9366C40.1021 36.0535 40.0985 36.077 39.9975 36.186L39.1162 37.3434C38.7438 37.8202 38.5117 38.3858 38.1736 38.8639C37.7609 39.4474 37.5394 40.1416 37.1898 40.7563C36.9836 41.1188 36.8269 41.8196 36.7207 42.2232C36.276 43.9144 36.2901 43.5742 35.9795 45.4565L35.8159 47.2619C35.7257 47.9148 34.9123 47.5162 33.9505 47.6694L32.7139 47.881C31.8915 48.0288 30.9553 48.2287 30.1736 48.5572L29.287 48.8767C29.2729 48.8842 29.2538 48.8947 29.24 48.9024L29.1496 48.9562C28.9792 49.0517 29.0786 49.0052 28.8539 49.1016L25.9716 50.8085C25.878 50.8927 25.828 50.9382 25.7431 51.0216C25.4736 51.2857 25.257 51.3289 24.9923 51.5912C24.7868 51.7951 24.7385 51.8683 24.5028 52.0589C24.2403 52.2709 24.3137 52.2978 24.1005 52.5283C23.9481 52.693 23.7686 52.8169 23.619 52.9988L22.8616 54.0577C22.5741 54.3824 22.4143 54.7747 22.1731 55.1047C21.9026 55.4753 21.7596 55.8812 21.5731 56.3128C21.4772 56.5348 21.423 56.714 21.3282 56.9333C21.1506 57.3442 20.9489 57.7679 20.865 58.2078C20.7791 58.6571 20.5731 59.1418 20.4765 59.572C20.4184 59.8308 20.4407 60.0599 20.3729 60.3365C20.3061 60.609 20.381 60.9679 20.1274 60.9799Z" fill="#FEFEFE"/></g><defs><clipPath id="clip0_174_398"><rect width="130.573" height="120" fill="white" transform="translate(0.713623)"/></clipPath></defs></svg>