<svg width="351" height="55" viewBox="0 0 351 55" fill="none" xmlns="http://www.w3.org/2000/svg"><path d="M308.171 32.8071V22.1957H339.946V32.8071H308.171ZM297.579 22.1957V11.5842H308.171V22.1957H297.579ZM308.171 11.5842V0.972717H350.538V11.5842H308.171ZM339.946 43.4186V32.8071H350.538V43.4186H339.946ZM297.579 54.0301V43.4186H339.946V54.0301H297.579Z" fill="#383838"/><path d="M233.923 0.972717H286.882V11.5842H265.698V54.0301H255.106V11.5842H233.923V0.972717Z" fill="#383838"/><path d="M212.633 11.5842H223.225V54.0301H212.633V32.8071H180.857V54.0301H170.266V11.5842H180.857V22.1957H212.633V11.5842ZM180.857 11.5842V0.972717H212.633V11.5842H180.857Z" fill="#383838"/><path d="M106.609 43.4186V11.5842H117.201V43.4186H106.609ZM148.976 22.1957V11.5842H159.568V22.1957H148.976ZM148.976 43.4186V32.8071H159.568V43.4186H148.976ZM117.201 11.5842V0.972717H148.976V11.5842H117.201ZM117.201 54.0301V43.4186H148.976V54.0301H117.201Z" fill="#383838"/><path d="M64.2419 32.8072V22.1957H96.0173V32.8072H64.2419Z" fill="#383838"/><path d="M11.177 32.8071V22.1957H42.9524V32.8071H11.177ZM0.585205 22.1957V11.5842H11.177V22.1957H0.585205ZM11.177 11.5842V0.972717H53.5442V11.5842H11.177ZM42.9524 43.4186V32.8071H53.5442V43.4186H42.9524ZM0.585205 54.0301V43.4186H42.9524V54.0301H0.585205Z" fill="#383838"/></svg>