<svg width="44" height="53" viewBox="0 0 44 53" fill="none" xmlns="http://www.w3.org/2000/svg"><g clip-path="url(#clip0_638_184)"><path fill-rule="evenodd" clip-rule="evenodd" d="M18.182 8.81812V11.0909H15.9093V13.3636H13.6365V15.6363H11.3638V17.9091H9.09107V20.1818H6.81836V22.4545H13.6365V47.4545H29.5456V22.4545H36.3638V20.1818H34.0911V17.9091H31.8184V15.6363H29.5456V13.3636H27.2729V11.0909H25.0002V8.81812H22.7275V6.54541H20.4547V8.81812H18.182Z" fill="#ED2E38"/><path fill-rule="evenodd" clip-rule="evenodd" d="M40.9091 22.4546V24.7273H31.8182V49.7273H11.3636V24.7273H2.27274V22.4546H0V27H9.0909V52H34.0909V27H43.1818V22.4546H40.9091Z" fill="#383838"/><path fill-rule="evenodd" clip-rule="evenodd" d="M20.4544 6.5452V4.27246H18.1816V6.5452H20.4544Z" fill="#383838"/><path fill-rule="evenodd" clip-rule="evenodd" d="M15.909 11.0911V8.81836H13.6362V11.0911H15.909Z" fill="#383838"/><path fill-rule="evenodd" clip-rule="evenodd" d="M36.3636 17.909V15.6362H34.0908V17.909H36.3636Z" fill="#383838"/><path fill-rule="evenodd" clip-rule="evenodd" d="M31.8182 13.3636V11.0908H29.5454V13.3636H31.8182Z" fill="#383838"/><path fill-rule="evenodd" clip-rule="evenodd" d="M27.2727 8.81812V6.54541H25V8.81812H27.2727Z" fill="#383838"/><path fill-rule="evenodd" clip-rule="evenodd" d="M29.5452 11.0911V8.81836H27.2725V11.0911H29.5452Z" fill="#383838"/><path fill-rule="evenodd" clip-rule="evenodd" d="M13.6365 13.3636V11.0908H11.3638V13.3636H13.6365Z" fill="#383838"/><path fill-rule="evenodd" clip-rule="evenodd" d="M22.7273 4.27271V2H20.4546V4.27271H22.7273Z" fill="#383838"/><path fill-rule="evenodd" clip-rule="evenodd" d="M9.09107 17.909V15.6362H6.81836V17.909H9.09107Z" fill="#383838"/><path fill-rule="evenodd" clip-rule="evenodd" d="M6.81815 20.1819V17.9092H4.54541V20.1819H6.81815Z" fill="#383838"/><path fill-rule="evenodd" clip-rule="evenodd" d="M38.6365 20.1819V17.9092H36.3638V20.1819H38.6365Z" fill="#383838"/><path fill-rule="evenodd" clip-rule="evenodd" d="M4.54517 20.1816H2.27246V22.4544H4.54517V20.1816Z" fill="#383838"/><path fill-rule="evenodd" clip-rule="evenodd" d="M40.9089 22.4544V20.1816H38.6362V22.4544H40.9089Z" fill="#383838"/><path fill-rule="evenodd" clip-rule="evenodd" d="M25.0002 6.5452V4.27246H22.7275V6.5452H25.0002Z" fill="#383838"/><path fill-rule="evenodd" clip-rule="evenodd" d="M11.3636 15.636V13.3633H9.09082V15.636H11.3636Z" fill="#383838"/><path fill-rule="evenodd" clip-rule="evenodd" d="M18.1819 8.81812V6.54541H15.9092V8.81812H18.1819Z" fill="#383838"/><path fill-rule="evenodd" clip-rule="evenodd" d="M34.0911 15.636V13.3633H31.8184V15.636H34.0911Z" fill="#383838"/><path fill-rule="evenodd" clip-rule="evenodd" d="M31.8179 49.7271V24.7271H40.9088V22.4544H38.6361V20.1816H36.3634V22.4544H29.5452V47.4544H13.6361V22.4544H6.81791V20.1816H4.54517V22.4544H2.27246V24.7271H11.3634V49.7271H31.8179Z" fill="#FEFEFE"/><path fill-rule="evenodd" clip-rule="evenodd" d="M34.0908 20.1819H36.3636V17.9092H34.0908V20.1819Z" fill="#FEFEFE"/><path fill-rule="evenodd" clip-rule="evenodd" d="M31.8184 17.909H34.0911V15.6362H31.8184V17.909Z" fill="#FEFEFE"/><path fill-rule="evenodd" clip-rule="evenodd" d="M29.5454 15.636H31.8182V13.3633H29.5454V15.636Z" fill="#FEFEFE"/><path fill-rule="evenodd" clip-rule="evenodd" d="M27.2725 13.3636H29.5452V11.0908H27.2725V13.3636Z" fill="#FEFEFE"/><path fill-rule="evenodd" clip-rule="evenodd" d="M25 11.0911H27.2727V8.81836H25V11.0911Z" fill="#FEFEFE"/><path fill-rule="evenodd" clip-rule="evenodd" d="M22.7275 8.81812H25.0002V6.54541H22.7275V8.81812Z" fill="#FEFEFE"/><path fill-rule="evenodd" clip-rule="evenodd" d="M20.4546 6.5452H22.7273V4.27246H20.4546V6.5452Z" fill="#FEFEFE"/><path fill-rule="evenodd" clip-rule="evenodd" d="M20.4544 8.81812V6.54541H18.1816V8.81812H20.4544Z" fill="#FEFEFE"/><path fill-rule="evenodd" clip-rule="evenodd" d="M18.1819 11.0911V8.81836H15.9092V11.0911H18.1819Z" fill="#FEFEFE"/><path fill-rule="evenodd" clip-rule="evenodd" d="M15.909 13.3636V11.0908H13.6362V13.3636H15.909Z" fill="#FEFEFE"/><path fill-rule="evenodd" clip-rule="evenodd" d="M13.6365 15.636V13.3633H11.3638V15.636H13.6365Z" fill="#FEFEFE"/><path fill-rule="evenodd" clip-rule="evenodd" d="M11.3636 17.909V15.6362H9.09082V17.909H11.3636Z" fill="#FEFEFE"/><path fill-rule="evenodd" clip-rule="evenodd" d="M9.09107 20.1819V17.9092H6.81836V20.1819H9.09107Z" fill="#FEFEFE"/></g><defs><clipPath id="clip0_638_184"><rect width="44" height="50" fill="white" transform="translate(0 2)"/></clipPath></defs></svg>