<svg width="44" height="55" viewBox="0 0 44 55" fill="none" xmlns="http://www.w3.org/2000/svg"><g clip-path="url(#clip0_638_183)"><g filter="url(#filter0_d_638_183)"><path fill-rule="evenodd" clip-rule="evenodd" d="M18.182 6.81812V9.09086H15.9093V11.3636H13.6365V13.6363H11.3638V15.9091H9.09107V18.1818H6.81836V20.4545H13.6365V45.4545H29.5456V20.4545H36.3638V18.1818H34.0911V15.9091H31.8184V13.6363H29.5456V11.3636H27.2729V9.09086H25.0002V6.81812H22.7275V4.54541H20.4547V6.81812H18.182Z" fill="#ED2E38"/><path fill-rule="evenodd" clip-rule="evenodd" d="M40.9091 20.4546V22.7273H31.8182V47.7273H11.3636V22.7273H2.27274V20.4546H0V25H9.0909V50H34.0909V25H43.1818V20.4546H40.9091Z" fill="#383838"/><path fill-rule="evenodd" clip-rule="evenodd" d="M20.4544 4.5452V2.27246H18.1816V4.5452H20.4544Z" fill="#383838"/><path fill-rule="evenodd" clip-rule="evenodd" d="M15.909 9.0911V6.81836H13.6362V9.0911H15.909Z" fill="#383838"/><path fill-rule="evenodd" clip-rule="evenodd" d="M36.3636 15.909V13.6362H34.0908V15.909H36.3636Z" fill="#383838"/><path fill-rule="evenodd" clip-rule="evenodd" d="M31.8182 11.3636V9.09082H29.5454V11.3636H31.8182Z" fill="#383838"/><path fill-rule="evenodd" clip-rule="evenodd" d="M27.2727 6.81812V4.54541H25V6.81812H27.2727Z" fill="#383838"/><path fill-rule="evenodd" clip-rule="evenodd" d="M29.5452 9.0911V6.81836H27.2725V9.0911H29.5452Z" fill="#383838"/><path fill-rule="evenodd" clip-rule="evenodd" d="M13.6365 11.3636V9.09082H11.3638V11.3636H13.6365Z" fill="#383838"/><path fill-rule="evenodd" clip-rule="evenodd" d="M22.7273 2.27271V0H20.4546V2.27271H22.7273Z" fill="#383838"/><path fill-rule="evenodd" clip-rule="evenodd" d="M9.09107 15.909V13.6362H6.81836V15.909H9.09107Z" fill="#383838"/><path fill-rule="evenodd" clip-rule="evenodd" d="M6.81815 18.1819V15.9092H4.54541V18.1819H6.81815Z" fill="#383838"/><path fill-rule="evenodd" clip-rule="evenodd" d="M38.6365 18.1819V15.9092H36.3638V18.1819H38.6365Z" fill="#383838"/><path fill-rule="evenodd" clip-rule="evenodd" d="M4.54517 18.1816H2.27246V20.4544H4.54517V18.1816Z" fill="#383838"/><path fill-rule="evenodd" clip-rule="evenodd" d="M40.9089 20.4544V18.1816H38.6362V20.4544H40.9089Z" fill="#383838"/><path fill-rule="evenodd" clip-rule="evenodd" d="M25.0002 4.5452V2.27246H22.7275V4.5452H25.0002Z" fill="#383838"/><path fill-rule="evenodd" clip-rule="evenodd" d="M11.3636 13.636V11.3633H9.09082V13.636H11.3636Z" fill="#383838"/><path fill-rule="evenodd" clip-rule="evenodd" d="M18.1819 6.81812V4.54541H15.9092V6.81812H18.1819Z" fill="#383838"/><path fill-rule="evenodd" clip-rule="evenodd" d="M34.0911 13.636V11.3633H31.8184V13.636H34.0911Z" fill="#383838"/><path fill-rule="evenodd" clip-rule="evenodd" d="M31.8179 47.7271V22.7271H40.9088V20.4544H38.6361V18.1816H36.3634V20.4544H29.5452V45.4544H13.6361V20.4544H6.81791V18.1816H4.54517V20.4544H2.27246V22.7271H11.3634V47.7271H31.8179Z" fill="#FEFEFE"/><path fill-rule="evenodd" clip-rule="evenodd" d="M34.0908 18.1819H36.3636V15.9092H34.0908V18.1819Z" fill="#FEFEFE"/><path fill-rule="evenodd" clip-rule="evenodd" d="M31.8184 15.909H34.0911V13.6362H31.8184V15.909Z" fill="#FEFEFE"/><path fill-rule="evenodd" clip-rule="evenodd" d="M29.5454 13.636H31.8182V11.3633H29.5454V13.636Z" fill="#FEFEFE"/><path fill-rule="evenodd" clip-rule="evenodd" d="M27.2725 11.3636H29.5452V9.09082H27.2725V11.3636Z" fill="#FEFEFE"/><path fill-rule="evenodd" clip-rule="evenodd" d="M25 9.0911H27.2727V6.81836H25V9.0911Z" fill="#FEFEFE"/><path fill-rule="evenodd" clip-rule="evenodd" d="M22.7275 6.81812H25.0002V4.54541H22.7275V6.81812Z" fill="#FEFEFE"/><path fill-rule="evenodd" clip-rule="evenodd" d="M20.4546 4.5452H22.7273V2.27246H20.4546V4.5452Z" fill="#FEFEFE"/><path fill-rule="evenodd" clip-rule="evenodd" d="M20.4544 6.81812V4.54541H18.1816V6.81812H20.4544Z" fill="#FEFEFE"/><path fill-rule="evenodd" clip-rule="evenodd" d="M18.1819 9.0911V6.81836H15.9092V9.0911H18.1819Z" fill="#FEFEFE"/><path fill-rule="evenodd" clip-rule="evenodd" d="M15.909 11.3636V9.09082H13.6362V11.3636H15.909Z" fill="#FEFEFE"/><path fill-rule="evenodd" clip-rule="evenodd" d="M13.6365 13.636V11.3633H11.3638V13.636H13.6365Z" fill="#FEFEFE"/><path fill-rule="evenodd" clip-rule="evenodd" d="M11.3636 15.909V13.6362H9.09082V15.909H11.3636Z" fill="#FEFEFE"/><path fill-rule="evenodd" clip-rule="evenodd" d="M9.09107 18.1819V15.9092H6.81836V18.1819H9.09107Z" fill="#FEFEFE"/></g></g><defs><filter id="filter0_d_638_183" x="-4" y="0" width="51.1816" height="58" filterUnits="userSpaceOnUse" color-interpolation-filters="sRGB"><feFlood flood-opacity="0" result="BackgroundImageFix"/><feColorMatrix in="SourceAlpha" type="matrix" values="0 0 0 0 0 0 0 0 0 0 0 0 0 0 0 0 0 0 127 0" result="hardAlpha"/><feOffset dy="4"/><feGaussianBlur stdDeviation="2"/><feComposite in2="hardAlpha" operator="out"/><feColorMatrix type="matrix" values="0 0 0 0 0 0 0 0 0 0 0 0 0 0 0 0 0 0 0.25 0"/><feBlend mode="normal" in2="BackgroundImageFix" result="effect1_dropShadow_638_183"/><feBlend mode="normal" in="SourceGraphic" in2="effect1_dropShadow_638_183" result="shape"/></filter><clipPath id="clip0_638_183"><rect width="44" height="55" fill="white"/></clipPath></defs></svg>