<svg xmlns="http://www.w3.org/2000/svg" xmlns:xlink="http://www.w3.org/1999/xlink"><defs><filter id="filter0_d_217_458" x="-5.0354" y="5.39062" width="38.8462" height="27.3076" filterUnits="userSpaceOnUse" color-interpolation-filters="sRGB"><feFlood flood-opacity="0" result="BackgroundImageFix"/><feColorMatrix in="SourceAlpha" type="matrix" values="0 0 0 0 0 0 0 0 0 0 0 0 0 0 0 0 0 0 127 0" result="hardAlpha"/><feOffset dy="4"/><feGaussianBlur stdDeviation="2.5"/><feComposite in2="hardAlpha" operator="out"/><feColorMatrix type="matrix" values="0 0 0 0 0 0 0 0 0 0 0 0 0 0 0 0 0 0 0.2 0"/><feBlend mode="normal" in2="BackgroundImageFix" result="effect1_dropShadow_217_458"/><feBlend mode="normal" in="SourceGraphic" in2="effect1_dropShadow_217_458" result="shape"/></filter><clipPath id="clip0_217_458"><rect width="28.8462" height="30" fill="white"/></clipPath></defs><symbol id="icon-close" viewBox="0 0 20 20"><g fill="none"><path d="M.293 18.291a1 1 0 101.414 1.414L10 11.413l8.292 8.292a1 1 0 101.414-1.414l-8.292-8.292 8.292-8.292A1 1 0 1018.291.293L9.999 8.585 1.707.293A1 1 0 10.293 1.707L8.585 10 .293 18.291z"/></g></symbol><symbol id="summary-arrow" viewBox="0 0 29 30"><g fill="none"><g clip-path="url(#clip0_217_458)"><g filter="url(#filter0_d_217_458)"><path d="M17.2724 17.9292H11.5032V23.6984H17.2724V17.9292Z" fill="#2B2A29"/><path d="M11.5031 12.1597H5.73389V17.9289H11.5031V12.1597Z" fill="#2B2A29"/><path d="M5.73383 6.39062H-0.0354004V12.1599H5.73383V6.39062Z" fill="#2B2A29"/><path d="M23.0414 12.1597H17.2722V17.9289H23.0414V12.1597Z" fill="#2B2A29"/><path d="M28.8107 6.39062H23.0415V12.1599H28.8107V6.39062Z" fill="#2B2A29"/></g></g></g></symbol></svg>